G04*
G04 #@! TF.GenerationSoftware,Altium Limited,Altium Designer,21.0.8 (223)*
G04*
G04 Layer_Color=65535*
%FSLAX25Y25*%
%MOIN*%
G70*
G04*
G04 #@! TF.SameCoordinates,39A8B939-FCF9-4CCB-A2C1-C80A2B419B22*
G04*
G04*
G04 #@! TF.FilePolarity,Positive*
G04*
G01*
G75*
%ADD10C,0.00787*%
%ADD11C,0.00394*%
%ADD12C,0.00984*%
%ADD13C,0.01000*%
D10*
X87823Y146343D02*
X87811Y147342D01*
X87776Y148341D01*
X87717Y149339D01*
X87634Y150335D01*
X87528Y151329D01*
X87398Y152321D01*
X87246Y153309D01*
X87069Y154293D01*
X86870Y155272D01*
X86648Y156247D01*
X86402Y157216D01*
X86134Y158179D01*
X85843Y159135D01*
X85530Y160085D01*
X85194Y161026D01*
X84836Y161960D01*
X84456Y162884D01*
X84055Y163800D01*
X83632Y164706D01*
X83187Y165601D01*
X82722Y166486D01*
X82236Y167359D01*
X81729Y168221D01*
X81202Y169071D01*
X80655Y169908D01*
X80089Y170731D01*
X79503Y171542D01*
X78899Y172338D01*
X78275Y173119D01*
X77634Y173886D01*
X76974Y174637D01*
X76297Y175373D01*
X75603Y176092D01*
X74892Y176795D01*
X74164Y177480D01*
X73421Y178149D01*
X72662Y178799D01*
X71888Y179432D01*
X71099Y180046D01*
X70296Y180641D01*
X69479Y181217D01*
X68648Y181774D01*
X67805Y182311D01*
X66949Y182827D01*
X66082Y183324D01*
X65202Y183800D01*
X64312Y184255D01*
X63412Y184688D01*
X62501Y185101D01*
X61581Y185491D01*
X60652Y185860D01*
X59714Y186207D01*
X58768Y186532D01*
X57816Y186834D01*
X56856Y187113D01*
X55890Y187370D01*
X54918Y187604D01*
X53940Y187815D01*
X52959Y188003D01*
X51973Y188168D01*
X50983Y188309D01*
X49990Y188426D01*
X48995Y188521D01*
X47998Y188592D01*
X46999Y188639D01*
X46000Y188662D01*
X45000D01*
X44001Y188639D01*
X43002Y188592D01*
X42005Y188521D01*
X41010Y188426D01*
X40017Y188309D01*
X39027Y188168D01*
X38041Y188003D01*
X37059Y187815D01*
X36082Y187604D01*
X35110Y187370D01*
X34144Y187113D01*
X33184Y186834D01*
X32232Y186532D01*
X31286Y186207D01*
X30348Y185860D01*
X29419Y185491D01*
X28499Y185101D01*
X27588Y184688D01*
X26688Y184255D01*
X25798Y183800D01*
X24918Y183324D01*
X24051Y182827D01*
X23195Y182311D01*
X22352Y181774D01*
X21521Y181217D01*
X20704Y180641D01*
X19901Y180046D01*
X19112Y179432D01*
X18338Y178799D01*
X17579Y178149D01*
X16836Y177480D01*
X16108Y176795D01*
X15397Y176092D01*
X14703Y175373D01*
X14026Y174637D01*
X13366Y173886D01*
X12725Y173119D01*
X12101Y172338D01*
X11497Y171542D01*
X10911Y170731D01*
X10345Y169908D01*
X9798Y169071D01*
X9271Y168221D01*
X8764Y167359D01*
X8278Y166486D01*
X7813Y165601D01*
X7368Y164706D01*
X6945Y163800D01*
X6544Y162884D01*
X6164Y161960D01*
X5806Y161026D01*
X5470Y160085D01*
X5157Y159135D01*
X4866Y158179D01*
X4598Y157216D01*
X4352Y156247D01*
X4130Y155272D01*
X3931Y154293D01*
X3754Y153309D01*
X3602Y152321D01*
X3472Y151330D01*
X3366Y150336D01*
X3283Y149339D01*
X3224Y148341D01*
X3189Y147342D01*
X3177Y146343D01*
X3189Y145343D01*
X3224Y144344D01*
X3283Y143346D01*
X3366Y142350D01*
X3472Y141356D01*
X3602Y140364D01*
X3754Y139376D01*
X3931Y138392D01*
X4130Y137413D01*
X4352Y136438D01*
X4598Y135469D01*
X4866Y134506D01*
X5157Y133550D01*
X5470Y132600D01*
X5806Y131659D01*
X6164Y130725D01*
X6544Y129801D01*
X6945Y128885D01*
X7368Y127980D01*
X7813Y127084D01*
X8278Y126199D01*
X8764Y125326D01*
X9271Y124464D01*
X9798Y123614D01*
X10345Y122777D01*
X10911Y121954D01*
X11497Y121143D01*
X12101Y120347D01*
X12724Y119566D01*
X13366Y118799D01*
X14026Y118048D01*
X14703Y117312D01*
X15397Y116593D01*
X16108Y115891D01*
X16835Y115205D01*
X17579Y114536D01*
X18338Y113886D01*
X19112Y113253D01*
X19901Y112639D01*
X20704Y112044D01*
X21521Y111468D01*
X22351Y110911D01*
X23195Y110374D01*
X24050Y109858D01*
X24918Y109361D01*
X25797Y108886D01*
X26687Y108431D01*
X27588Y107997D01*
X28499Y107585D01*
X29419Y107194D01*
X30348Y106825D01*
X31286Y106478D01*
X32231Y106153D01*
X33184Y105851D01*
X34144Y105572D01*
X35110Y105315D01*
X36082Y105081D01*
X37059Y104870D01*
X38041Y104682D01*
X39027Y104518D01*
X40017Y104376D01*
X41010Y104259D01*
X42005Y104164D01*
X43002Y104094D01*
X44001Y104046D01*
X45000Y104023D01*
X46000D01*
X46999Y104046D01*
X47998Y104094D01*
X48995Y104164D01*
X49990Y104259D01*
X50983Y104376D01*
X51972Y104517D01*
X52959Y104682D01*
X53940Y104870D01*
X54918Y105081D01*
X55889Y105315D01*
X56856Y105572D01*
X57815Y105851D01*
X58768Y106153D01*
X59714Y106478D01*
X60651Y106825D01*
X61581Y107194D01*
X62501Y107584D01*
X63411Y107997D01*
X64312Y108431D01*
X65202Y108885D01*
X66082Y109361D01*
X66949Y109858D01*
X67805Y110374D01*
X68648Y110911D01*
X69479Y111468D01*
X70296Y112044D01*
X71099Y112639D01*
X71888Y113253D01*
X72662Y113886D01*
X73421Y114536D01*
X74164Y115205D01*
X74892Y115890D01*
X75603Y116593D01*
X76297Y117312D01*
X76974Y118048D01*
X77634Y118799D01*
X78275Y119566D01*
X78899Y120347D01*
X79503Y121143D01*
X80089Y121954D01*
X80655Y122777D01*
X81202Y123614D01*
X81729Y124464D01*
X82236Y125326D01*
X82722Y126199D01*
X83187Y127084D01*
X83632Y127979D01*
X84055Y128885D01*
X84456Y129801D01*
X84836Y130725D01*
X85194Y131659D01*
X85530Y132600D01*
X85843Y133550D01*
X86134Y134506D01*
X86402Y135469D01*
X86648Y136438D01*
X86870Y137413D01*
X87069Y138393D01*
X87246Y139377D01*
X87398Y140365D01*
X87528Y141356D01*
X87634Y142350D01*
X87717Y143346D01*
X87776Y144344D01*
X87811Y145343D01*
X87823Y146343D01*
X152327Y185724D02*
X151539D01*
X152327D01*
X332055Y386516D02*
X331268D01*
X332055D01*
X280445Y340984D02*
X281232D01*
X280445D01*
X102201Y225276D02*
X101413D01*
X102201D01*
X47398Y222394D02*
Y221606D01*
Y222394D01*
X32457Y315421D02*
X31669D01*
X32457D01*
X276500Y316819D02*
Y319181D01*
Y322319D02*
Y324681D01*
X159173Y215500D02*
X163307D01*
X149740Y216933D02*
Y221067D01*
Y226933D02*
Y231067D01*
Y236433D02*
Y240567D01*
X155488Y200705D02*
Y201295D01*
X143992Y200705D02*
X155488D01*
X143992D02*
Y201295D01*
X155488D01*
X155665Y202673D02*
Y207594D01*
X135673Y200000D02*
X139807D01*
X135240Y216933D02*
Y221067D01*
Y226933D02*
Y231067D01*
Y236433D02*
Y240567D01*
X354898Y128000D02*
Y323000D01*
X364386D01*
Y123000D02*
Y323000D01*
X359642Y123000D02*
X364386D01*
X276500Y327819D02*
Y330181D01*
X145372Y304893D02*
Y330484D01*
X134782Y304893D02*
X145372D01*
X134782D02*
Y336074D01*
X140077D01*
X101357Y322433D02*
Y326567D01*
X95442Y329908D02*
X121032D01*
X95442D02*
Y340498D01*
X126623D01*
Y335203D02*
Y340498D01*
X95442Y300048D02*
X121032D01*
X95442D02*
Y310639D01*
X126623D01*
Y305343D02*
Y310639D01*
X101357Y313933D02*
Y318067D01*
X120708Y313933D02*
Y318067D01*
Y322433D02*
Y326567D01*
X81433Y52000D02*
X85567D01*
X72933D02*
X77067D01*
X130319Y70000D02*
X132681D01*
X141500Y66850D02*
Y73150D01*
X143500Y76819D02*
Y79181D01*
X162567Y79472D02*
X166701D01*
X161189Y80063D02*
Y87937D01*
X159811D02*
X161189D01*
X159811Y80063D02*
Y87937D01*
Y80063D02*
X161189D01*
X150909Y92594D02*
Y97890D01*
Y92594D02*
X182091D01*
Y103185D01*
X156500D02*
X182091D01*
X176500Y106433D02*
Y110567D01*
X156500Y106433D02*
Y110567D01*
X138850Y85705D02*
Y96295D01*
X145150Y85705D02*
Y100154D01*
X124850Y85705D02*
Y96295D01*
X131150Y85705D02*
Y100154D01*
X117150Y85705D02*
Y96295D01*
X110850Y81846D02*
Y96295D01*
X347543Y83008D02*
Y98500D01*
X336755Y83008D02*
X347543D01*
X336755D02*
Y103992D01*
X342149D01*
X330718Y83008D02*
Y98500D01*
X319931Y83008D02*
X330718D01*
X319931D02*
Y103992D01*
X325324D01*
X266933Y343500D02*
X271067D01*
X258433D02*
X262567D01*
X254744Y123000D02*
Y318000D01*
X245256Y123000D02*
X254744D01*
X245256D02*
Y323000D01*
X250000D01*
X197008Y150606D02*
X212500D01*
X197008D02*
Y161394D01*
X217992D01*
Y156000D02*
Y161394D01*
X197008Y167106D02*
X212500D01*
X197008D02*
Y177894D01*
X217992D01*
Y172500D02*
Y177894D01*
X197008Y183606D02*
X212500D01*
X197008D02*
Y194394D01*
X217992D01*
Y189000D02*
Y194394D01*
X202500Y209269D02*
X217992D01*
Y198481D02*
Y209269D01*
X197008Y198481D02*
X217992D01*
X197008D02*
Y203875D01*
X202500Y224144D02*
X217992D01*
Y213356D02*
Y224144D01*
X197008Y213356D02*
X217992D01*
X197008D02*
Y218750D01*
X202500Y239019D02*
X217992D01*
Y228231D02*
Y239019D01*
X197008Y228231D02*
X217992D01*
X197008D02*
Y233625D01*
X202500Y253894D02*
X217992D01*
Y243106D02*
Y253894D01*
X197008Y243106D02*
X217992D01*
X197008D02*
Y248500D01*
X202500Y267394D02*
X217992D01*
Y256606D02*
Y267394D01*
X197008Y256606D02*
X217992D01*
X197008D02*
Y262000D01*
Y270606D02*
X212500D01*
X197008D02*
Y281394D01*
X217992D01*
Y276000D02*
Y281394D01*
X197008Y313665D02*
X212500D01*
X197008D02*
Y324453D01*
X217992D01*
Y319059D02*
Y324453D01*
X108000Y178933D02*
Y183067D01*
Y186933D02*
Y191067D01*
X102252Y200705D02*
Y201295D01*
X113748D01*
Y200705D02*
Y201295D01*
X102252Y200705D02*
X113748D01*
X102075Y194405D02*
Y199327D01*
X108000Y211433D02*
Y215567D01*
X13500Y197819D02*
Y200181D01*
X54433Y223500D02*
X58567D01*
X71933Y238500D02*
X76067D01*
X63433D02*
X67567D01*
X59753Y239371D02*
Y241340D01*
X53454Y239371D02*
X59753D01*
X53454D02*
Y241340D01*
X59753D01*
X60147Y242718D02*
Y244588D01*
X57500Y247319D02*
Y249681D01*
X22500Y307933D02*
Y312067D01*
Y299433D02*
Y303567D01*
X21433Y277500D02*
X25567D01*
X31433Y304500D02*
X35567D01*
X39319D02*
X41681D01*
X56831Y270247D02*
Y285739D01*
X46043Y270247D02*
X56831D01*
X46043D02*
Y291231D01*
X51437D01*
X56500Y306933D02*
Y311067D01*
Y315358D02*
Y319492D01*
Y323783D02*
Y327917D01*
X19500Y334319D02*
Y336681D01*
Y328819D02*
Y331181D01*
Y323319D02*
Y325681D01*
X31319Y340500D02*
X33681D01*
X48508Y379106D02*
X64000D01*
X48508D02*
Y389894D01*
X69492D01*
Y384500D02*
Y389894D01*
X11500D02*
X26992D01*
Y379106D02*
Y389894D01*
X6008Y379106D02*
X26992D01*
X6008D02*
Y384500D01*
X60819Y342500D02*
X63181D01*
X67433Y344500D02*
X71567D01*
X46319Y342500D02*
X48681D01*
X52433Y344500D02*
X56567D01*
X357500Y34319D02*
Y36681D01*
X309705Y28252D02*
X310295D01*
X309705D02*
Y39748D01*
X310295D01*
Y28252D02*
Y39748D01*
X311673Y28075D02*
X316595D01*
X363039Y45945D02*
X365402D01*
X309205Y44252D02*
X309795D01*
X309205D02*
Y55748D01*
X309795D01*
Y44252D02*
Y55748D01*
X311173Y44075D02*
X316094D01*
X357039Y45445D02*
X359402D01*
X321933Y58500D02*
X326067D01*
X321733Y40144D02*
X325867D01*
X217992Y305425D02*
Y310819D01*
X197008D02*
X217992D01*
X197008Y300031D02*
Y310819D01*
Y300031D02*
X212500D01*
X217992Y289947D02*
Y295341D01*
X197008D02*
X217992D01*
X197008Y284554D02*
Y295341D01*
Y284554D02*
X212500D01*
X93319Y50000D02*
X95681D01*
X99208D02*
X101570D01*
X105097D02*
X107459D01*
X110986D02*
X113348D01*
X116874D02*
X119237D01*
X122763D02*
X125126D01*
X128652D02*
X131014D01*
X134541D02*
X136903D01*
X140430D02*
X142792D01*
X146319D02*
X148681D01*
X353580Y103992D02*
X358973D01*
X353580Y83008D02*
Y103992D01*
Y83008D02*
X364367D01*
Y98500D01*
X357819Y342000D02*
X360181D01*
X350075Y343500D02*
X354209D01*
X341575D02*
X345709D01*
D11*
X267811Y282764D02*
X268205D01*
X267811D01*
X92165Y30728D02*
X92559D01*
X92165D01*
X147760Y178441D02*
X150949Y178480D01*
X150909Y181945D02*
X150949Y178480D01*
X139532Y178441D02*
Y182260D01*
Y178441D02*
X142720D01*
X311189Y374311D02*
X334811D01*
X311189Y350689D02*
Y374311D01*
Y350689D02*
X334811D01*
Y374311D01*
X277689Y353189D02*
X301311D01*
Y376811D01*
X277689D02*
X301311D01*
X277689Y353189D02*
Y376811D01*
X342024Y287488D02*
Y311110D01*
X271158D02*
X342024D01*
X271158Y287488D02*
Y311110D01*
X111020Y232559D02*
X114209D01*
Y228740D02*
Y232559D01*
X102791Y232520D02*
X102831Y229055D01*
X102791Y232520D02*
X105980Y232559D01*
X24563Y206252D02*
X32437D01*
X24563Y237748D02*
X32437D01*
X29728Y367677D02*
X33272D01*
X29728Y352323D02*
X33272D01*
X149449Y9075D02*
Y15610D01*
X80551Y9075D02*
X149449D01*
X80551D02*
Y15610D01*
D12*
X334046Y36262D02*
X333307Y36688D01*
Y35836D01*
X334046Y36262D01*
D13*
X84500Y179000D02*
Y250000D01*
Y179000D02*
X92000Y171500D01*
X122500D01*
Y244000D01*
X116500Y250000D02*
X122500Y244000D01*
X84500Y250000D02*
X116500D01*
X124000Y175000D02*
Y246500D01*
Y175000D02*
X127500Y171500D01*
X171000D01*
Y237500D01*
X162000Y246500D02*
X171000Y237500D01*
X124000Y246500D02*
X162000D01*
X302834Y327333D02*
X302168Y327999D01*
X300835D01*
X300168Y327333D01*
Y324667D01*
X300835Y324001D01*
X302168D01*
X302834Y324667D01*
X306833Y324001D02*
X304167D01*
X306833Y326666D01*
Y327333D01*
X306166Y327999D01*
X304834D01*
X304167Y327333D01*
X308166Y324667D02*
X308832Y324001D01*
X310165D01*
X310832Y324667D01*
Y327333D01*
X310165Y327999D01*
X308832D01*
X308166Y327333D01*
Y326666D01*
X308832Y326000D01*
X310832D01*
X303334Y335333D02*
X302668Y335999D01*
X301335D01*
X300668Y335333D01*
Y332667D01*
X301335Y332001D01*
X302668D01*
X303334Y332667D01*
X307333Y332001D02*
X304667D01*
X307333Y334666D01*
Y335333D01*
X306666Y335999D01*
X305334D01*
X304667Y335333D01*
X308666Y335999D02*
X311332D01*
Y335333D01*
X308666Y332667D01*
Y332001D01*
X302834Y319333D02*
X302168Y319999D01*
X300835D01*
X300168Y319333D01*
Y316667D01*
X300835Y316001D01*
X302168D01*
X302834Y316667D01*
X306833Y316001D02*
X304167D01*
X306833Y318666D01*
Y319333D01*
X306166Y319999D01*
X304834D01*
X304167Y319333D01*
X308166D02*
X308832Y319999D01*
X310165D01*
X310832Y319333D01*
Y318666D01*
X310165Y318000D01*
X310832Y317334D01*
Y316667D01*
X310165Y316001D01*
X308832D01*
X308166Y316667D01*
Y317334D01*
X308832Y318000D01*
X308166Y318666D01*
Y319333D01*
X308832Y318000D02*
X310165D01*
X371999Y308502D02*
X371333D01*
Y309169D01*
X371999D01*
Y308502D01*
X368001Y314500D02*
Y313167D01*
Y313834D01*
X371333D01*
X371999Y313167D01*
Y312501D01*
X371333Y311835D01*
X371999Y318499D02*
Y315833D01*
X369334Y318499D01*
X368667D01*
X368001Y317833D01*
Y316500D01*
X368667Y315833D01*
X371999Y321831D02*
X368001D01*
X370000Y319832D01*
Y322498D01*
X147168Y248501D02*
Y252499D01*
X149168D01*
X149834Y251833D01*
Y250500D01*
X149168Y249834D01*
X147168D01*
X148501D02*
X149834Y248501D01*
X151167Y251833D02*
X151833Y252499D01*
X153166D01*
X153833Y251833D01*
Y251166D01*
X153166Y250500D01*
X152500D01*
X153166D01*
X153833Y249834D01*
Y249167D01*
X153166Y248501D01*
X151833D01*
X151167Y249167D01*
X155166Y251833D02*
X155832Y252499D01*
X157165D01*
X157832Y251833D01*
Y251166D01*
X157165Y250500D01*
X157832Y249834D01*
Y249167D01*
X157165Y248501D01*
X155832D01*
X155166Y249167D01*
Y249834D01*
X155832Y250500D01*
X155166Y251166D01*
Y251833D01*
X155832Y250500D02*
X157165D01*
X163499Y224668D02*
X159501D01*
Y226668D01*
X160167Y227334D01*
X161500D01*
X162166Y226668D01*
Y224668D01*
Y226001D02*
X163499Y227334D01*
X160167Y228667D02*
X159501Y229334D01*
Y230666D01*
X160167Y231333D01*
X160834D01*
X161500Y230666D01*
Y230000D01*
Y230666D01*
X162166Y231333D01*
X162833D01*
X163499Y230666D01*
Y229334D01*
X162833Y228667D01*
X159501Y232666D02*
Y235332D01*
X160167D01*
X162833Y232666D01*
X163499D01*
X137999Y249168D02*
X134001D01*
Y251168D01*
X134667Y251834D01*
X136000D01*
X136667Y251168D01*
Y249168D01*
Y250501D02*
X137999Y251834D01*
X134667Y253167D02*
X134001Y253834D01*
Y255166D01*
X134667Y255833D01*
X135334D01*
X136000Y255166D01*
Y254500D01*
Y255166D01*
X136667Y255833D01*
X137333D01*
X137999Y255166D01*
Y253834D01*
X137333Y253167D01*
X134001Y259832D02*
X134667Y258499D01*
X136000Y257166D01*
X137333D01*
X137999Y257832D01*
Y259165D01*
X137333Y259832D01*
X136667D01*
X136000Y259165D01*
Y257166D01*
X127168Y277501D02*
Y281499D01*
X129168D01*
X129834Y280833D01*
Y279500D01*
X129168Y278834D01*
X127168D01*
X128501D02*
X129834Y277501D01*
X131167Y280833D02*
X131834Y281499D01*
X133167D01*
X133833Y280833D01*
Y280166D01*
X133167Y279500D01*
X132500D01*
X133167D01*
X133833Y278834D01*
Y278167D01*
X133167Y277501D01*
X131834D01*
X131167Y278167D01*
X137832Y281499D02*
X135166D01*
Y279500D01*
X136499Y280166D01*
X137165D01*
X137832Y279500D01*
Y278167D01*
X137165Y277501D01*
X135832D01*
X135166Y278167D01*
X127168Y270001D02*
Y273999D01*
X129168D01*
X129834Y273333D01*
Y272000D01*
X129168Y271334D01*
X127168D01*
X128501D02*
X129834Y270001D01*
X131167Y273333D02*
X131834Y273999D01*
X133167D01*
X133833Y273333D01*
Y272666D01*
X133167Y272000D01*
X132500D01*
X133167D01*
X133833Y271334D01*
Y270667D01*
X133167Y270001D01*
X131834D01*
X131167Y270667D01*
X137165Y270001D02*
Y273999D01*
X135166Y272000D01*
X137832D01*
X127168Y263001D02*
Y266999D01*
X129168D01*
X129834Y266333D01*
Y265000D01*
X129168Y264334D01*
X127168D01*
X128501D02*
X129834Y263001D01*
X131167Y266333D02*
X131834Y266999D01*
X133167D01*
X133833Y266333D01*
Y265666D01*
X133167Y265000D01*
X132500D01*
X133167D01*
X133833Y264334D01*
Y263667D01*
X133167Y263001D01*
X131834D01*
X131167Y263667D01*
X135166Y266333D02*
X135832Y266999D01*
X137165D01*
X137832Y266333D01*
Y265666D01*
X137165Y265000D01*
X136499D01*
X137165D01*
X137832Y264334D01*
Y263667D01*
X137165Y263001D01*
X135832D01*
X135166Y263667D01*
X147168Y255001D02*
Y258999D01*
X149168D01*
X149834Y258333D01*
Y257000D01*
X149168Y256334D01*
X147168D01*
X148501D02*
X149834Y255001D01*
X151167Y258333D02*
X151833Y258999D01*
X153166D01*
X153833Y258333D01*
Y257666D01*
X153166Y257000D01*
X152500D01*
X153166D01*
X153833Y256334D01*
Y255667D01*
X153166Y255001D01*
X151833D01*
X151167Y255667D01*
X157832Y255001D02*
X155166D01*
X157832Y257666D01*
Y258333D01*
X157165Y258999D01*
X155832D01*
X155166Y258333D01*
X147335Y261001D02*
Y264999D01*
X149334D01*
X150001Y264333D01*
Y263000D01*
X149334Y262334D01*
X147335D01*
X148668D02*
X150001Y261001D01*
X151333Y264333D02*
X152000Y264999D01*
X153333D01*
X153999Y264333D01*
Y263666D01*
X153333Y263000D01*
X152666D01*
X153333D01*
X153999Y262334D01*
Y261667D01*
X153333Y261001D01*
X152000D01*
X151333Y261667D01*
X155332Y261001D02*
X156665D01*
X155999D01*
Y264999D01*
X155332Y264333D01*
X162833Y200167D02*
Y202833D01*
X162167Y203499D01*
X160834D01*
X160168Y202833D01*
Y200167D01*
X160834Y199501D01*
X162167D01*
X161501Y200834D02*
X162833Y199501D01*
X162167D02*
X162833Y200167D01*
X164166Y203499D02*
X166832D01*
Y202833D01*
X164166Y200167D01*
Y199501D01*
X157834Y180167D02*
Y182833D01*
X157167Y183499D01*
X155834D01*
X155168Y182833D01*
Y180167D01*
X155834Y179501D01*
X157167D01*
X156501Y180833D02*
X157834Y179501D01*
X157167D02*
X157834Y180167D01*
X161832Y183499D02*
X160499Y182833D01*
X159167Y181500D01*
Y180167D01*
X159833Y179501D01*
X161166D01*
X161832Y180167D01*
Y180833D01*
X161166Y181500D01*
X159167D01*
X37667Y97833D02*
X37001Y98499D01*
X35668D01*
X35002Y97833D01*
Y95167D01*
X35668Y94501D01*
X37001D01*
X37667Y95167D01*
X39000Y94501D02*
X40333D01*
X39667D01*
Y98499D01*
X39000Y97833D01*
X44332Y94501D02*
Y98499D01*
X42333Y96500D01*
X44998D01*
X101002Y294001D02*
Y294667D01*
X101668D01*
Y294001D01*
X101002D01*
X107000Y297999D02*
X105667D01*
X106333D01*
Y294667D01*
X105667Y294001D01*
X105000D01*
X104334Y294667D01*
X108333Y297999D02*
X110998D01*
Y297333D01*
X108333Y294667D01*
Y294001D01*
X96002Y343001D02*
Y343667D01*
X96668D01*
Y343001D01*
X96002D01*
X102000Y346999D02*
X100667D01*
X101333D01*
Y343667D01*
X100667Y343001D01*
X100000D01*
X99334Y343667D01*
X103333Y346333D02*
X103999Y346999D01*
X105332D01*
X105998Y346333D01*
Y345666D01*
X105332Y345000D01*
X105998Y344334D01*
Y343667D01*
X105332Y343001D01*
X103999D01*
X103333Y343667D01*
Y344334D01*
X103999Y345000D01*
X103333Y345666D01*
Y346333D01*
X103999Y345000D02*
X105332D01*
X221002Y224547D02*
Y225213D01*
X221668D01*
Y224547D01*
X221002D01*
X227000Y228545D02*
X225667D01*
X226333D01*
Y225213D01*
X225667Y224547D01*
X225000D01*
X224334Y225213D01*
X230998Y224547D02*
X228333D01*
X230998Y227213D01*
Y227879D01*
X230332Y228545D01*
X228999D01*
X228333Y227879D01*
X234997Y228545D02*
X233664Y227879D01*
X232331Y226546D01*
Y225213D01*
X232998Y224547D01*
X234331D01*
X234997Y225213D01*
Y225880D01*
X234331Y226546D01*
X232331D01*
X221002Y194729D02*
Y195395D01*
X221668D01*
Y194729D01*
X221002D01*
X227000Y198727D02*
X225667D01*
X226333D01*
Y195395D01*
X225667Y194729D01*
X225000D01*
X224334Y195395D01*
X230998Y194729D02*
X228333D01*
X230998Y197394D01*
Y198061D01*
X230332Y198727D01*
X228999D01*
X228333Y198061D01*
X234997Y198727D02*
X232331D01*
Y196728D01*
X233664Y197394D01*
X234331D01*
X234997Y196728D01*
Y195395D01*
X234331Y194729D01*
X232998D01*
X232331Y195395D01*
X130502Y298001D02*
Y298667D01*
X131169D01*
Y298001D01*
X130502D01*
X133835D02*
Y301999D01*
X135834D01*
X136500Y301333D01*
Y300000D01*
X135834Y299334D01*
X133835D01*
X135167D02*
X136500Y298001D01*
X140499D02*
X137833D01*
X140499Y300666D01*
Y301333D01*
X139833Y301999D01*
X138500D01*
X137833Y301333D01*
X143831Y298001D02*
Y301999D01*
X141832Y300000D01*
X144498D01*
X130002Y291501D02*
Y292167D01*
X130669D01*
Y291501D01*
X130002D01*
X133335D02*
Y295499D01*
X135334D01*
X136000Y294833D01*
Y293500D01*
X135334Y292834D01*
X133335D01*
X134667D02*
X136000Y291501D01*
X139999D02*
X137333D01*
X139999Y294166D01*
Y294833D01*
X139333Y295499D01*
X138000D01*
X137333Y294833D01*
X141332D02*
X141998Y295499D01*
X143331D01*
X143998Y294833D01*
Y294166D01*
X143331Y293500D01*
X142665D01*
X143331D01*
X143998Y292834D01*
Y292167D01*
X143331Y291501D01*
X141998D01*
X141332Y292167D01*
X79502Y322501D02*
Y323167D01*
X80169D01*
Y322501D01*
X79502D01*
X82835D02*
Y326499D01*
X84834D01*
X85500Y325833D01*
Y324500D01*
X84834Y323834D01*
X82835D01*
X84167D02*
X85500Y322501D01*
X89499D02*
X86833D01*
X89499Y325166D01*
Y325833D01*
X88833Y326499D01*
X87500D01*
X86833Y325833D01*
X90832D02*
X91498Y326499D01*
X92831D01*
X93498Y325833D01*
Y323167D01*
X92831Y322501D01*
X91498D01*
X90832Y323167D01*
Y325833D01*
X80335Y313501D02*
Y314167D01*
X81002D01*
Y313501D01*
X80335D01*
X83668D02*
Y317499D01*
X85667D01*
X86334Y316833D01*
Y315500D01*
X85667Y314834D01*
X83668D01*
X85001D02*
X86334Y313501D01*
X87666D02*
X88999D01*
X88333D01*
Y317499D01*
X87666Y316833D01*
X90999Y314167D02*
X91665Y313501D01*
X92998D01*
X93664Y314167D01*
Y316833D01*
X92998Y317499D01*
X91665D01*
X90999Y316833D01*
Y316166D01*
X91665Y315500D01*
X93664D01*
X31499Y282335D02*
X30833D01*
Y283002D01*
X31499D01*
Y282335D01*
Y285668D02*
X27501D01*
Y287667D01*
X28167Y288334D01*
X29500D01*
X30166Y287667D01*
Y285668D01*
Y287001D02*
X31499Y288334D01*
Y289667D02*
Y290999D01*
Y290333D01*
X27501D01*
X28167Y289667D01*
Y292999D02*
X27501Y293665D01*
Y294998D01*
X28167Y295665D01*
X28834D01*
X29500Y294998D01*
X30166Y295665D01*
X30833D01*
X31499Y294998D01*
Y293665D01*
X30833Y292999D01*
X30166D01*
X29500Y293665D01*
X28834Y292999D01*
X28167D01*
X29500Y293665D02*
Y294998D01*
X2169Y295751D02*
Y296334D01*
X2752D01*
Y295751D01*
X2169D01*
X5084D02*
Y299249D01*
X6834D01*
X7417Y298666D01*
Y297500D01*
X6834Y296917D01*
X5084D01*
X6251D02*
X7417Y295751D01*
X8583D02*
X9749D01*
X9166D01*
Y299249D01*
X8583Y298666D01*
X11499Y299249D02*
X13832D01*
Y298666D01*
X11499Y296334D01*
Y295751D01*
X2169Y302251D02*
Y302834D01*
X2752D01*
Y302251D01*
X2169D01*
X5084D02*
Y305749D01*
X6834D01*
X7417Y305166D01*
Y304000D01*
X6834Y303417D01*
X5084D01*
X6251D02*
X7417Y302251D01*
X8583D02*
X9749D01*
X9166D01*
Y305749D01*
X8583Y305166D01*
X13832Y305749D02*
X11499D01*
Y304000D01*
X12665Y304583D01*
X13248D01*
X13832Y304000D01*
Y302834D01*
X13248Y302251D01*
X12082D01*
X11499Y302834D01*
X152502Y116501D02*
Y117167D01*
X153168D01*
Y116501D01*
X152502D01*
X155834D02*
Y120499D01*
X157833D01*
X158500Y119833D01*
Y118500D01*
X157833Y117833D01*
X155834D01*
X157167D02*
X158500Y116501D01*
X162498Y120499D02*
X159833D01*
Y118500D01*
X161165Y119167D01*
X161832D01*
X162498Y118500D01*
Y117167D01*
X161832Y116501D01*
X160499D01*
X159833Y117167D01*
X170502Y117001D02*
Y117667D01*
X171168D01*
Y117001D01*
X170502D01*
X173834D02*
Y120999D01*
X175833D01*
X176500Y120333D01*
Y119000D01*
X175833Y118333D01*
X173834D01*
X175167D02*
X176500Y117001D01*
X179832D02*
Y120999D01*
X177833Y119000D01*
X180498D01*
X30364Y68669D02*
X29697D01*
Y69336D01*
X30364D01*
Y68669D01*
Y72002D02*
X26365D01*
Y74001D01*
X27031Y74667D01*
X28364D01*
X29031Y74001D01*
Y72002D01*
Y73334D02*
X30364Y74667D01*
Y78666D02*
Y76000D01*
X27698Y78666D01*
X27031D01*
X26365Y78000D01*
Y76667D01*
X27031Y76000D01*
X23999Y68668D02*
X23333D01*
Y69335D01*
X23999D01*
Y68668D01*
Y72000D02*
X20001D01*
Y74000D01*
X20667Y74666D01*
X22000D01*
X22667Y74000D01*
Y72000D01*
Y73333D02*
X23999Y74666D01*
Y75999D02*
Y77332D01*
Y76666D01*
X20001D01*
X20667Y75999D01*
X51002Y373001D02*
Y373667D01*
X51668D01*
Y373001D01*
X51002D01*
X57000Y376999D02*
X55667D01*
X56333D01*
Y373667D01*
X55667Y373001D01*
X55000D01*
X54334Y373667D01*
X60332Y373001D02*
Y376999D01*
X58333Y375000D01*
X60998D01*
X62999Y272502D02*
X62333D01*
Y273168D01*
X62999D01*
Y272502D01*
X59001Y278500D02*
Y277167D01*
Y277833D01*
X62333D01*
X62999Y277167D01*
Y276500D01*
X62333Y275834D01*
X59667Y279833D02*
X59001Y280499D01*
Y281832D01*
X59667Y282498D01*
X60334D01*
X61000Y281832D01*
Y281166D01*
Y281832D01*
X61666Y282498D01*
X62333D01*
X62999Y281832D01*
Y280499D01*
X62333Y279833D01*
X309999Y85835D02*
X309333D01*
Y86502D01*
X309999D01*
Y85835D01*
X306001Y91834D02*
Y90501D01*
Y91167D01*
X309333D01*
X309999Y90501D01*
Y89834D01*
X309333Y89168D01*
X309999Y93167D02*
Y94499D01*
Y93833D01*
X306001D01*
X306667Y93167D01*
Y96499D02*
X306001Y97165D01*
Y98498D01*
X306667Y99164D01*
X309333D01*
X309999Y98498D01*
Y97165D01*
X309333Y96499D01*
X306667D01*
X11002Y373001D02*
Y373667D01*
X11668D01*
Y373001D01*
X11002D01*
X17000Y376999D02*
X15667D01*
X16333D01*
Y373667D01*
X15667Y373001D01*
X15000D01*
X14334Y373667D01*
X20998Y376999D02*
X18333D01*
Y375000D01*
X19666Y375666D01*
X20332D01*
X20998Y375000D01*
Y373667D01*
X20332Y373001D01*
X18999D01*
X18333Y373667D01*
X221002Y284183D02*
Y284850D01*
X221668D01*
Y284183D01*
X221002D01*
X227000Y288182D02*
X225667D01*
X226333D01*
Y284850D01*
X225667Y284183D01*
X225000D01*
X224334Y284850D01*
X230998Y284183D02*
X228333D01*
X230998Y286849D01*
Y287515D01*
X230332Y288182D01*
X228999D01*
X228333Y287515D01*
X232331Y284183D02*
X233664D01*
X232998D01*
Y288182D01*
X232331Y287515D01*
X221002Y299092D02*
Y299759D01*
X221668D01*
Y299092D01*
X221002D01*
X227000Y303091D02*
X225667D01*
X226333D01*
Y299759D01*
X225667Y299092D01*
X225000D01*
X224334Y299759D01*
X230998Y299092D02*
X228333D01*
X230998Y301758D01*
Y302425D01*
X230332Y303091D01*
X228999D01*
X228333Y302425D01*
X232331D02*
X232998Y303091D01*
X234331D01*
X234997Y302425D01*
Y299759D01*
X234331Y299092D01*
X232998D01*
X232331Y299759D01*
Y302425D01*
X221002Y164910D02*
Y165577D01*
X221668D01*
Y164910D01*
X221002D01*
X227000Y168909D02*
X225667D01*
X226333D01*
Y165577D01*
X225667Y164910D01*
X225000D01*
X224334Y165577D01*
X228333Y164910D02*
X229665D01*
X228999D01*
Y168909D01*
X228333Y168243D01*
X231665Y165577D02*
X232331Y164910D01*
X233664D01*
X234331Y165577D01*
Y168243D01*
X233664Y168909D01*
X232331D01*
X231665Y168243D01*
Y167576D01*
X232331Y166910D01*
X234331D01*
X221002Y269274D02*
Y269940D01*
X221668D01*
Y269274D01*
X221002D01*
X227000Y273273D02*
X225667D01*
X226333D01*
Y269940D01*
X225667Y269274D01*
X225000D01*
X224334Y269940D01*
X228333Y269274D02*
X229665D01*
X228999D01*
Y273273D01*
X228333Y272606D01*
X231665D02*
X232331Y273273D01*
X233664D01*
X234331Y272606D01*
Y271940D01*
X233664Y271273D01*
X234331Y270607D01*
Y269940D01*
X233664Y269274D01*
X232331D01*
X231665Y269940D01*
Y270607D01*
X232331Y271273D01*
X231665Y271940D01*
Y272606D01*
X232331Y271273D02*
X233664D01*
X221002Y153001D02*
Y153667D01*
X221668D01*
Y153001D01*
X221002D01*
X227000Y156999D02*
X225667D01*
X226333D01*
Y153667D01*
X225667Y153001D01*
X225000D01*
X224334Y153667D01*
X228333Y153001D02*
X229665D01*
X228999D01*
Y156999D01*
X228333Y156333D01*
X231665Y156999D02*
X234331D01*
Y156333D01*
X231665Y153667D01*
Y153001D01*
X221002Y179820D02*
Y180486D01*
X221668D01*
Y179820D01*
X221002D01*
X227000Y183818D02*
X225667D01*
X226333D01*
Y180486D01*
X225667Y179820D01*
X225000D01*
X224334Y180486D01*
X228333Y179820D02*
X229665D01*
X228999D01*
Y183818D01*
X228333Y183152D01*
X234331Y183818D02*
X232998Y183152D01*
X231665Y181819D01*
Y180486D01*
X232331Y179820D01*
X233664D01*
X234331Y180486D01*
Y181152D01*
X233664Y181819D01*
X231665D01*
X221002Y314001D02*
Y314668D01*
X221668D01*
Y314001D01*
X221002D01*
X227000Y318000D02*
X225667D01*
X226333D01*
Y314668D01*
X225667Y314001D01*
X225000D01*
X224334Y314668D01*
X228333Y314001D02*
X229665D01*
X228999D01*
Y318000D01*
X228333Y317334D01*
X234331Y318000D02*
X231665D01*
Y316001D01*
X232998Y316667D01*
X233664D01*
X234331Y316001D01*
Y314668D01*
X233664Y314001D01*
X232331D01*
X231665Y314668D01*
X221002Y209638D02*
Y210304D01*
X221668D01*
Y209638D01*
X221002D01*
X227000Y213636D02*
X225667D01*
X226333D01*
Y210304D01*
X225667Y209638D01*
X225000D01*
X224334Y210304D01*
X228333Y209638D02*
X229665D01*
X228999D01*
Y213636D01*
X228333Y212970D01*
X233664Y209638D02*
Y213636D01*
X231665Y211637D01*
X234331D01*
X317499Y85835D02*
X316833D01*
Y86502D01*
X317499D01*
Y85835D01*
X313501Y91834D02*
Y90501D01*
Y91167D01*
X316833D01*
X317499Y90501D01*
Y89834D01*
X316833Y89168D01*
X317499Y93167D02*
Y94499D01*
Y93833D01*
X313501D01*
X314167Y93167D01*
Y96499D02*
X313501Y97165D01*
Y98498D01*
X314167Y99164D01*
X314834D01*
X315500Y98498D01*
Y97832D01*
Y98498D01*
X316166Y99164D01*
X316833D01*
X317499Y98498D01*
Y97165D01*
X316833Y96499D01*
X302499Y85835D02*
X301833D01*
Y86502D01*
X302499D01*
Y85835D01*
X298501Y91834D02*
Y90501D01*
Y91167D01*
X301833D01*
X302499Y90501D01*
Y89834D01*
X301833Y89168D01*
X302499Y93167D02*
Y94499D01*
Y93833D01*
X298501D01*
X299167Y93167D01*
X302499Y99164D02*
Y96499D01*
X299834Y99164D01*
X299167D01*
X298501Y98498D01*
Y97165D01*
X299167Y96499D01*
X221002Y239456D02*
Y240122D01*
X221668D01*
Y239456D01*
X221002D01*
X227000Y243455D02*
X225667D01*
X226333D01*
Y240122D01*
X225667Y239456D01*
X225000D01*
X224334Y240122D01*
X228333Y239456D02*
X229665D01*
X228999D01*
Y243455D01*
X228333Y242788D01*
X231665Y239456D02*
X232998D01*
X232331D01*
Y243455D01*
X231665Y242788D01*
X221002Y254365D02*
Y255031D01*
X221668D01*
Y254365D01*
X221002D01*
X227000Y258364D02*
X225667D01*
X226333D01*
Y255031D01*
X225667Y254365D01*
X225000D01*
X224334Y255031D01*
X228333D02*
X228999Y254365D01*
X230332D01*
X230998Y255031D01*
Y257697D01*
X230332Y258364D01*
X228999D01*
X228333Y257697D01*
Y257031D01*
X228999Y256364D01*
X230998D01*
X30502Y199001D02*
Y199667D01*
X31168D01*
Y199001D01*
X30502D01*
X33834Y202999D02*
Y199001D01*
X36500D01*
X40498D02*
X37833D01*
X40498Y201666D01*
Y202333D01*
X39832Y202999D01*
X38499D01*
X37833Y202333D01*
X67999Y252336D02*
X67333D01*
Y253002D01*
X67999D01*
Y252336D01*
Y255668D02*
X64001D01*
Y257667D01*
X64667Y258334D01*
X66000D01*
X66666Y257667D01*
Y255668D01*
Y257001D02*
X67999Y258334D01*
Y259666D02*
Y260999D01*
Y260333D01*
X64001D01*
X64667Y259666D01*
X67999Y265665D02*
Y262999D01*
X65334Y265665D01*
X64667D01*
X64001Y264998D01*
Y263665D01*
X64667Y262999D01*
X87502Y187501D02*
Y188167D01*
X88168D01*
Y187501D01*
X87502D01*
X90834D02*
Y191499D01*
X92834D01*
X93500Y190833D01*
Y189500D01*
X92834Y188833D01*
X90834D01*
X92167D02*
X93500Y187501D01*
X94833D02*
X96166D01*
X95499D01*
Y191499D01*
X94833Y190833D01*
X98165Y187501D02*
X99498D01*
X98832D01*
Y191499D01*
X98165Y190833D01*
X74499Y252502D02*
X73833D01*
Y253168D01*
X74499D01*
Y252502D01*
Y255834D02*
X70501D01*
Y257833D01*
X71167Y258500D01*
X72500D01*
X73166Y257833D01*
Y255834D01*
Y257167D02*
X74499Y258500D01*
X73833Y259833D02*
X74499Y260499D01*
Y261832D01*
X73833Y262498D01*
X71167D01*
X70501Y261832D01*
Y260499D01*
X71167Y259833D01*
X71834D01*
X72500Y260499D01*
Y262498D01*
X89002Y212001D02*
Y212667D01*
X89668D01*
Y212001D01*
X89002D01*
X92334D02*
Y215999D01*
X94333D01*
X95000Y215333D01*
Y214000D01*
X94333Y213334D01*
X92334D01*
X93667D02*
X95000Y212001D01*
X96333Y215333D02*
X96999Y215999D01*
X98332D01*
X98998Y215333D01*
Y214666D01*
X98332Y214000D01*
X98998Y213334D01*
Y212667D01*
X98332Y212001D01*
X96999D01*
X96333Y212667D01*
Y213334D01*
X96999Y214000D01*
X96333Y214666D01*
Y215333D01*
X96999Y214000D02*
X98332D01*
X64999Y214502D02*
X64333D01*
Y215168D01*
X64999D01*
Y214502D01*
Y217834D02*
X61001D01*
Y219833D01*
X61667Y220500D01*
X63000D01*
X63666Y219833D01*
Y217834D01*
Y219167D02*
X64999Y220500D01*
X61001Y221833D02*
Y224498D01*
X61667D01*
X64333Y221833D01*
X64999D01*
X87002Y195001D02*
Y195667D01*
X87668D01*
Y195001D01*
X87002D01*
X93000Y195667D02*
Y198333D01*
X92333Y198999D01*
X91000D01*
X90334Y198333D01*
Y195667D01*
X91000Y195001D01*
X92333D01*
X91667Y196334D02*
X93000Y195001D01*
X92333D02*
X93000Y195667D01*
X94333Y198333D02*
X94999Y198999D01*
X96332D01*
X96998Y198333D01*
Y197667D01*
X96332Y197000D01*
X95666D01*
X96332D01*
X96998Y196334D01*
Y195667D01*
X96332Y195001D01*
X94999D01*
X94333Y195667D01*
X114998Y243001D02*
Y243667D01*
X114332D01*
Y243001D01*
X114998D01*
X109000Y243667D02*
Y246333D01*
X109667Y246999D01*
X111000D01*
X111666Y246333D01*
Y243667D01*
X111000Y243001D01*
X109667D01*
X110333Y244334D02*
X109000Y243001D01*
X109667D02*
X109000Y243667D01*
X105002Y243001D02*
X107667D01*
X105002Y245666D01*
Y246333D01*
X105668Y246999D01*
X107001D01*
X107667Y246333D01*
X36002Y242001D02*
Y242667D01*
X36668D01*
Y242001D01*
X36002D01*
X39334Y245999D02*
X40667D01*
X40001D01*
Y242001D01*
X39334D01*
X40667D01*
X45332Y245333D02*
X44666Y245999D01*
X43333D01*
X42667Y245333D01*
Y242667D01*
X43333Y242001D01*
X44666D01*
X45332Y242667D01*
X46665Y242001D02*
X47998D01*
X47332D01*
Y245999D01*
X46665Y245333D01*
X46836Y253501D02*
Y254167D01*
X47502D01*
Y253501D01*
X46836D01*
X52834Y256833D02*
X52167Y257499D01*
X50834D01*
X50168Y256833D01*
Y254167D01*
X50834Y253501D01*
X52167D01*
X52834Y254167D01*
X54167Y253501D02*
X55499D01*
X54833D01*
Y257499D01*
X54167Y256833D01*
X60164Y257499D02*
X57499D01*
Y255500D01*
X58832Y256166D01*
X59498D01*
X60164Y255500D01*
Y254167D01*
X59498Y253501D01*
X58165D01*
X57499Y254167D01*
X14836Y191001D02*
Y191667D01*
X15502D01*
Y191001D01*
X14836D01*
X20833Y194333D02*
X20167Y194999D01*
X18834D01*
X18168Y194333D01*
Y191667D01*
X18834Y191001D01*
X20167D01*
X20833Y191667D01*
X22166Y191001D02*
X23499D01*
X22833D01*
Y194999D01*
X22166Y194333D01*
X25499D02*
X26165Y194999D01*
X27498D01*
X28164Y194333D01*
Y193667D01*
X27498Y193000D01*
X26832D01*
X27498D01*
X28164Y192333D01*
Y191667D01*
X27498Y191001D01*
X26165D01*
X25499Y191667D01*
X345999Y354502D02*
X345333D01*
Y355169D01*
X345999D01*
Y354502D01*
Y357835D02*
X342001D01*
Y359834D01*
X342667Y360500D01*
X344000D01*
X344666Y359834D01*
Y357835D01*
Y359167D02*
X345999Y360500D01*
X342667Y361833D02*
X342001Y362500D01*
Y363833D01*
X342667Y364499D01*
X343334D01*
X344000Y363833D01*
Y363166D01*
Y363833D01*
X344666Y364499D01*
X345333D01*
X345999Y363833D01*
Y362500D01*
X345333Y361833D01*
X342667Y365832D02*
X342001Y366498D01*
Y367831D01*
X342667Y368498D01*
X345333D01*
X345999Y367831D01*
Y366498D01*
X345333Y365832D01*
X342667D01*
X268999Y354502D02*
X268333D01*
Y355169D01*
X268999D01*
Y354502D01*
Y357835D02*
X265001D01*
Y359834D01*
X265667Y360500D01*
X267000D01*
X267666Y359834D01*
Y357835D01*
Y359167D02*
X268999Y360500D01*
Y364499D02*
Y361833D01*
X266334Y364499D01*
X265667D01*
X265001Y363833D01*
Y362500D01*
X265667Y361833D01*
X268333Y365832D02*
X268999Y366498D01*
Y367831D01*
X268333Y368498D01*
X265667D01*
X265001Y367831D01*
Y366498D01*
X265667Y365832D01*
X266334D01*
X267000Y366498D01*
Y368498D01*
X261499Y354002D02*
X260833D01*
Y354669D01*
X261499D01*
Y354002D01*
Y357334D02*
X257501D01*
Y359334D01*
X258167Y360000D01*
X259500D01*
X260166Y359334D01*
Y357334D01*
Y358667D02*
X261499Y360000D01*
Y363999D02*
Y361333D01*
X258834Y363999D01*
X258167D01*
X257501Y363333D01*
Y362000D01*
X258167Y361333D01*
Y365332D02*
X257501Y365998D01*
Y367331D01*
X258167Y367998D01*
X258834D01*
X259500Y367331D01*
X260166Y367998D01*
X260833D01*
X261499Y367331D01*
Y365998D01*
X260833Y365332D01*
X260166D01*
X259500Y365998D01*
X258834Y365332D01*
X258167D01*
X259500Y365998D02*
Y367331D01*
X353999Y354502D02*
X353333D01*
Y355169D01*
X353999D01*
Y354502D01*
Y357835D02*
X350001D01*
Y359834D01*
X350667Y360500D01*
X352000D01*
X352666Y359834D01*
Y357835D01*
Y359167D02*
X353999Y360500D01*
Y364499D02*
Y361833D01*
X351334Y364499D01*
X350667D01*
X350001Y363833D01*
Y362500D01*
X350667Y361833D01*
X350001Y365832D02*
Y368498D01*
X350667D01*
X353333Y365832D01*
X353999D01*
X332499Y58002D02*
X331833D01*
Y58669D01*
X332499D01*
Y58002D01*
Y61335D02*
X328501D01*
Y63334D01*
X329167Y64000D01*
X330500D01*
X331166Y63334D01*
Y61335D01*
Y62667D02*
X332499Y64000D01*
Y67999D02*
Y65333D01*
X329834Y67999D01*
X329167D01*
X328501Y67333D01*
Y66000D01*
X329167Y65333D01*
X328501Y71998D02*
X329167Y70665D01*
X330500Y69332D01*
X331833D01*
X332499Y69998D01*
Y71331D01*
X331833Y71998D01*
X331166D01*
X330500Y71331D01*
Y69332D01*
X324499Y18002D02*
X323833D01*
Y18669D01*
X324499D01*
Y18002D01*
Y21335D02*
X320501D01*
Y23334D01*
X321167Y24000D01*
X322500D01*
X323166Y23334D01*
Y21335D01*
Y22667D02*
X324499Y24000D01*
Y27999D02*
Y25333D01*
X321834Y27999D01*
X321167D01*
X320501Y27333D01*
Y26000D01*
X321167Y25333D01*
X320501Y31998D02*
Y29332D01*
X322500D01*
X321834Y30665D01*
Y31331D01*
X322500Y31998D01*
X323833D01*
X324499Y31331D01*
Y29998D01*
X323833Y29332D01*
X59499Y357002D02*
X58833D01*
Y357669D01*
X59499D01*
Y357002D01*
Y360334D02*
X55501D01*
Y362334D01*
X56167Y363000D01*
X57500D01*
X58166Y362334D01*
Y360334D01*
Y361667D02*
X59499Y363000D01*
Y366999D02*
Y364333D01*
X56833Y366999D01*
X56167D01*
X55501Y366333D01*
Y365000D01*
X56167Y364333D01*
X59499Y370998D02*
Y368332D01*
X56833Y370998D01*
X56167D01*
X55501Y370331D01*
Y368998D01*
X56167Y368332D01*
X71499Y357002D02*
X70833D01*
Y357669D01*
X71499D01*
Y357002D01*
Y360334D02*
X67501D01*
Y362334D01*
X68167Y363000D01*
X69500D01*
X70166Y362334D01*
Y360334D01*
Y361667D02*
X71499Y363000D01*
Y366999D02*
Y364333D01*
X68834Y366999D01*
X68167D01*
X67501Y366333D01*
Y365000D01*
X68167Y364333D01*
X71499Y368332D02*
Y369665D01*
Y368998D01*
X67501D01*
X68167Y368332D01*
X65499Y357002D02*
X64833D01*
Y357669D01*
X65499D01*
Y357002D01*
X62167Y363000D02*
X61501Y362334D01*
Y361001D01*
X62167Y360334D01*
X64833D01*
X65499Y361001D01*
Y362334D01*
X64833Y363000D01*
X65499Y366999D02*
Y364333D01*
X62834Y366999D01*
X62167D01*
X61501Y366333D01*
Y365000D01*
X62167Y364333D01*
X65499Y370998D02*
Y368332D01*
X62834Y370998D01*
X62167D01*
X61501Y370331D01*
Y368998D01*
X62167Y368332D01*
X53499Y357169D02*
X52833D01*
Y357835D01*
X53499D01*
Y357169D01*
X50167Y363167D02*
X49501Y362500D01*
Y361167D01*
X50167Y360501D01*
X52833D01*
X53499Y361167D01*
Y362500D01*
X52833Y363167D01*
X53499Y367165D02*
Y364500D01*
X50834Y367165D01*
X50167D01*
X49501Y366499D01*
Y365166D01*
X50167Y364500D01*
X53499Y368498D02*
Y369831D01*
Y369165D01*
X49501D01*
X50167Y368498D01*
X262002Y379001D02*
Y379667D01*
X262668D01*
Y379001D01*
X262002D01*
X268000Y382333D02*
X267333Y382999D01*
X266000D01*
X265334Y382333D01*
Y381666D01*
X266000Y381000D01*
X267333D01*
X268000Y380334D01*
Y379667D01*
X267333Y379001D01*
X266000D01*
X265334Y379667D01*
X271998Y379001D02*
X269333D01*
X271998Y381666D01*
Y382333D01*
X271332Y382999D01*
X269999D01*
X269333Y382333D01*
X340668Y379001D02*
Y379667D01*
X341335D01*
Y379001D01*
X340668D01*
X346666Y382333D02*
X346000Y382999D01*
X344667D01*
X344000Y382333D01*
Y381666D01*
X344667Y381000D01*
X346000D01*
X346666Y380334D01*
Y379667D01*
X346000Y379001D01*
X344667D01*
X344000Y379667D01*
X347999Y379001D02*
X349332D01*
X348665D01*
Y382999D01*
X347999Y382333D01*
X51336Y300001D02*
Y300667D01*
X52002D01*
Y300001D01*
X51336D01*
X54668D02*
Y303999D01*
X56667D01*
X57334Y303333D01*
Y302000D01*
X56667Y301334D01*
X54668D01*
X56001D02*
X57334Y300001D01*
X58666D02*
X59999D01*
X59333D01*
Y303999D01*
X58666Y303333D01*
X64665Y303999D02*
X63332Y303333D01*
X61999Y302000D01*
Y300667D01*
X62665Y300001D01*
X63998D01*
X64665Y300667D01*
Y301334D01*
X63998Y302000D01*
X61999D01*
X66335Y316001D02*
Y316667D01*
X67002D01*
Y316001D01*
X66335D01*
X69668D02*
Y319999D01*
X71667D01*
X72334Y319333D01*
Y318000D01*
X71667Y317334D01*
X69668D01*
X71001D02*
X72334Y316001D01*
X73667D02*
X74999D01*
X74333D01*
Y319999D01*
X73667Y319333D01*
X78998Y316001D02*
Y319999D01*
X76999Y318000D01*
X79664D01*
X64836Y324001D02*
Y324667D01*
X65502D01*
Y324001D01*
X64836D01*
X68168D02*
Y327999D01*
X70167D01*
X70834Y327333D01*
Y326000D01*
X70167Y325334D01*
X68168D01*
X69501D02*
X70834Y324001D01*
X72167D02*
X73499D01*
X72833D01*
Y327999D01*
X72167Y327333D01*
X75499D02*
X76165Y327999D01*
X77498D01*
X78164Y327333D01*
Y326666D01*
X77498Y326000D01*
X76832D01*
X77498D01*
X78164Y325334D01*
Y324667D01*
X77498Y324001D01*
X76165D01*
X75499Y324667D01*
X86835Y179501D02*
Y180167D01*
X87502D01*
Y179501D01*
X86835D01*
X90168D02*
Y183499D01*
X92167D01*
X92834Y182833D01*
Y181500D01*
X92167Y180833D01*
X90168D01*
X91501D02*
X92834Y179501D01*
X94166D02*
X95499D01*
X94833D01*
Y183499D01*
X94166Y182833D01*
X97499D02*
X98165Y183499D01*
X99498D01*
X100164Y182833D01*
Y180167D01*
X99498Y179501D01*
X98165D01*
X97499Y180167D01*
Y182833D01*
X17499Y273002D02*
X16833D01*
Y273668D01*
X17499D01*
Y273002D01*
Y276334D02*
X13501D01*
Y278333D01*
X14167Y279000D01*
X15500D01*
X16166Y278333D01*
Y276334D01*
Y277667D02*
X17499Y279000D01*
X13501Y282998D02*
X14167Y281665D01*
X15500Y280333D01*
X16833D01*
X17499Y280999D01*
Y282332D01*
X16833Y282998D01*
X16166D01*
X15500Y282332D01*
Y280333D01*
X173502Y75501D02*
Y76167D01*
X174168D01*
Y75501D01*
X173502D01*
X176834D02*
Y79499D01*
X178833D01*
X179500Y78833D01*
Y77500D01*
X178833Y76834D01*
X176834D01*
X178167D02*
X179500Y75501D01*
X180833Y78833D02*
X181499Y79499D01*
X182832D01*
X183498Y78833D01*
Y78166D01*
X182832Y77500D01*
X182166D01*
X182832D01*
X183498Y76834D01*
Y76167D01*
X182832Y75501D01*
X181499D01*
X180833Y76167D01*
X308999Y15502D02*
X308333D01*
Y16168D01*
X308999D01*
Y15502D01*
X308333Y21500D02*
X305667D01*
X305001Y20833D01*
Y19500D01*
X305667Y18834D01*
X308333D01*
X308999Y19500D01*
Y20833D01*
X307666Y20167D02*
X308999Y21500D01*
Y20833D02*
X308333Y21500D01*
X305001Y25498D02*
Y22833D01*
X307000D01*
X306334Y24166D01*
Y24832D01*
X307000Y25498D01*
X308333D01*
X308999Y24832D01*
Y23499D01*
X308333Y22833D01*
X314999Y59002D02*
X314333D01*
Y59668D01*
X314999D01*
Y59002D01*
X314333Y65000D02*
X311667D01*
X311001Y64333D01*
Y63000D01*
X311667Y62334D01*
X314333D01*
X314999Y63000D01*
Y64333D01*
X313666Y63667D02*
X314999Y65000D01*
Y64333D02*
X314333Y65000D01*
X314999Y68332D02*
X311001D01*
X313000Y66333D01*
Y68998D01*
X173668Y82001D02*
Y82667D01*
X174335D01*
Y82001D01*
X173668D01*
X179666Y82667D02*
Y85333D01*
X179000Y85999D01*
X177667D01*
X177000Y85333D01*
Y82667D01*
X177667Y82001D01*
X179000D01*
X178333Y83334D02*
X179666Y82001D01*
X179000D02*
X179666Y82667D01*
X180999Y82001D02*
X182332D01*
X181666D01*
Y85999D01*
X180999Y85333D01*
X26502Y370001D02*
Y370667D01*
X27168D01*
Y370001D01*
X26502D01*
X29834Y373999D02*
Y370001D01*
X32500D01*
X33833Y373333D02*
X34499Y373999D01*
X35832D01*
X36498Y373333D01*
Y372666D01*
X35832Y372000D01*
X35166D01*
X35832D01*
X36498Y371334D01*
Y370667D01*
X35832Y370001D01*
X34499D01*
X33833Y370667D01*
X152668Y67501D02*
Y68167D01*
X153334D01*
Y67501D01*
X152668D01*
X156000Y71499D02*
Y67501D01*
X158666D01*
X159999D02*
X161332D01*
X160666D01*
Y71499D01*
X159999Y70833D01*
X260999Y307502D02*
X260333D01*
Y308169D01*
X260999D01*
Y307502D01*
X257001Y313500D02*
Y312167D01*
Y312834D01*
X260333D01*
X260999Y312167D01*
Y311501D01*
X260333Y310835D01*
X260999Y317499D02*
Y314833D01*
X258334Y317499D01*
X257667D01*
X257001Y316833D01*
Y315500D01*
X257667Y314833D01*
Y318832D02*
X257001Y319498D01*
Y320831D01*
X257667Y321498D01*
X258334D01*
X259000Y320831D01*
Y320165D01*
Y320831D01*
X259666Y321498D01*
X260333D01*
X260999Y320831D01*
Y319498D01*
X260333Y318832D01*
X151499Y313502D02*
X150833D01*
Y314168D01*
X151499D01*
Y313502D01*
X147501Y319500D02*
Y318167D01*
Y318833D01*
X150833D01*
X151499Y318167D01*
Y317500D01*
X150833Y316834D01*
X147501Y323498D02*
X148167Y322165D01*
X149500Y320833D01*
X150833D01*
X151499Y321499D01*
Y322832D01*
X150833Y323498D01*
X150166D01*
X149500Y322832D01*
Y320833D01*
X185002Y95501D02*
Y96167D01*
X185668D01*
Y95501D01*
X185002D01*
X191000Y99499D02*
X189667D01*
X190333D01*
Y96167D01*
X189667Y95501D01*
X189000D01*
X188334Y96167D01*
X194998Y95501D02*
X192333D01*
X194998Y98166D01*
Y98833D01*
X194332Y99499D01*
X192999D01*
X192333Y98833D01*
X62168Y21001D02*
Y21667D01*
X62835D01*
Y21001D01*
X62168D01*
X68166Y24999D02*
X66833D01*
X67500D01*
Y21667D01*
X66833Y21001D01*
X66167D01*
X65500Y21667D01*
X69499Y21001D02*
X70832D01*
X70165D01*
Y24999D01*
X69499Y24333D01*
X328836Y314001D02*
Y314667D01*
X329502D01*
Y314001D01*
X328836D01*
X332168Y317999D02*
X333501D01*
X332834D01*
Y314001D01*
X332168D01*
X333501D01*
X338166Y317333D02*
X337499Y317999D01*
X336167D01*
X335500Y317333D01*
Y314667D01*
X336167Y314001D01*
X337499D01*
X338166Y314667D01*
X341498Y314001D02*
Y317999D01*
X339499Y316000D01*
X342164D01*
X335836Y64501D02*
Y65167D01*
X336502D01*
Y64501D01*
X335836D01*
X339168Y68499D02*
X340501D01*
X339834D01*
Y64501D01*
X339168D01*
X340501D01*
X345166Y67833D02*
X344499Y68499D01*
X343166D01*
X342500Y67833D01*
Y65167D01*
X343166Y64501D01*
X344499D01*
X345166Y65167D01*
X346499Y67833D02*
X347165Y68499D01*
X348498D01*
X349165Y67833D01*
Y67166D01*
X348498Y66500D01*
X347832D01*
X348498D01*
X349165Y65834D01*
Y65167D01*
X348498Y64501D01*
X347165D01*
X346499Y65167D01*
X71836Y336001D02*
Y336667D01*
X72502D01*
Y336001D01*
X71836D01*
X75168Y339999D02*
X76501D01*
X75834D01*
Y336001D01*
X75168D01*
X76501D01*
X81166Y339333D02*
X80499Y339999D01*
X79167D01*
X78500Y339333D01*
Y336667D01*
X79167Y336001D01*
X80499D01*
X81166Y336667D01*
X85164Y336001D02*
X82499D01*
X85164Y338666D01*
Y339333D01*
X84498Y339999D01*
X83165D01*
X82499Y339333D01*
X143499Y111002D02*
X142833D01*
Y111668D01*
X143499D01*
Y111002D01*
X139501Y114334D02*
X143499D01*
Y116333D01*
X142833Y117000D01*
X140167D01*
X139501Y116333D01*
Y114334D01*
X140167Y118333D02*
X139501Y118999D01*
Y120332D01*
X140167Y120998D01*
X140833D01*
X141500Y120332D01*
Y119666D01*
Y120332D01*
X142166Y120998D01*
X142833D01*
X143499Y120332D01*
Y118999D01*
X142833Y118333D01*
X128999Y111002D02*
X128333D01*
Y111668D01*
X128999D01*
Y111002D01*
X125001Y114334D02*
X128999D01*
Y116333D01*
X128333Y117000D01*
X125667D01*
X125001Y116333D01*
Y114334D01*
X128999Y120998D02*
Y118333D01*
X126333Y120998D01*
X125667D01*
X125001Y120332D01*
Y118999D01*
X125667Y118333D01*
X114999Y110668D02*
X114333D01*
Y111335D01*
X114999D01*
Y110668D01*
X111001Y114000D02*
X114999D01*
Y116000D01*
X114333Y116666D01*
X111667D01*
X111001Y116000D01*
Y114000D01*
X114999Y117999D02*
Y119332D01*
Y118666D01*
X111001D01*
X111667Y117999D01*
X361499Y354502D02*
X360833D01*
Y355169D01*
X361499D01*
Y354502D01*
X358167Y360500D02*
X357501Y359834D01*
Y358501D01*
X358167Y357835D01*
X360833D01*
X361499Y358501D01*
Y359834D01*
X360833Y360500D01*
X361499Y364499D02*
Y361833D01*
X358834Y364499D01*
X358167D01*
X357501Y363833D01*
Y362500D01*
X358167Y361833D01*
X357501Y368498D02*
X358167Y367165D01*
X359500Y365832D01*
X360833D01*
X361499Y366498D01*
Y367831D01*
X360833Y368498D01*
X360166D01*
X359500Y367831D01*
Y365832D01*
X365999Y60002D02*
X365333D01*
Y60669D01*
X365999D01*
Y60002D01*
X362667Y66000D02*
X362001Y65334D01*
Y64001D01*
X362667Y63335D01*
X365333D01*
X365999Y64001D01*
Y65334D01*
X365333Y66000D01*
X365999Y69999D02*
Y67333D01*
X363334Y69999D01*
X362667D01*
X362001Y69333D01*
Y68000D01*
X362667Y67333D01*
X362001Y73998D02*
Y71332D01*
X364000D01*
X363334Y72665D01*
Y73331D01*
X364000Y73998D01*
X365333D01*
X365999Y73331D01*
Y71998D01*
X365333Y71332D01*
X359499Y60002D02*
X358833D01*
Y60669D01*
X359499D01*
Y60002D01*
X356167Y66000D02*
X355501Y65334D01*
Y64001D01*
X356167Y63335D01*
X358833D01*
X359499Y64001D01*
Y65334D01*
X358833Y66000D01*
X359499Y69999D02*
Y67333D01*
X356834Y69999D01*
X356167D01*
X355501Y69333D01*
Y68000D01*
X356167Y67333D01*
X359499Y73331D02*
X355501D01*
X357500Y71332D01*
Y73998D01*
X357502Y26501D02*
Y27167D01*
X358169D01*
Y26501D01*
X357502D01*
X363500Y29833D02*
X362834Y30499D01*
X361501D01*
X360835Y29833D01*
Y27167D01*
X361501Y26501D01*
X362834D01*
X363500Y27167D01*
X367499Y26501D02*
X364833D01*
X367499Y29166D01*
Y29833D01*
X366833Y30499D01*
X365500D01*
X364833Y29833D01*
X368832D02*
X369498Y30499D01*
X370831D01*
X371498Y29833D01*
Y29166D01*
X370831Y28500D01*
X370165D01*
X370831D01*
X371498Y27834D01*
Y27167D01*
X370831Y26501D01*
X369498D01*
X368832Y27167D01*
X48999Y294002D02*
X48333D01*
Y294669D01*
X48999D01*
Y294002D01*
X45667Y300000D02*
X45001Y299334D01*
Y298001D01*
X45667Y297335D01*
X48333D01*
X48999Y298001D01*
Y299334D01*
X48333Y300000D01*
X48999Y303999D02*
Y301333D01*
X46334Y303999D01*
X45667D01*
X45001Y303333D01*
Y302000D01*
X45667Y301333D01*
Y305332D02*
X45001Y305998D01*
Y307331D01*
X45667Y307998D01*
X48333D01*
X48999Y307331D01*
Y305998D01*
X48333Y305332D01*
X45667D01*
X26499Y335836D02*
X25833D01*
Y336502D01*
X26499D01*
Y335836D01*
X23167Y341834D02*
X22501Y341167D01*
Y339834D01*
X23167Y339168D01*
X25833D01*
X26499Y339834D01*
Y341167D01*
X25833Y341834D01*
X26499Y343166D02*
Y344499D01*
Y343833D01*
X22501D01*
X23167Y343166D01*
X25833Y346499D02*
X26499Y347165D01*
Y348498D01*
X25833Y349165D01*
X23167D01*
X22501Y348498D01*
Y347165D01*
X23167Y346499D01*
X23833D01*
X24500Y347165D01*
Y349165D01*
X1833Y323250D02*
Y323833D01*
X2416D01*
Y323250D01*
X1833D01*
X7081Y326166D02*
X6498Y326749D01*
X5332D01*
X4749Y326166D01*
Y323833D01*
X5332Y323250D01*
X6498D01*
X7081Y323833D01*
X8248Y323250D02*
X9414D01*
X8831D01*
Y326749D01*
X8248Y326166D01*
X11163D02*
X11746Y326749D01*
X12913D01*
X13496Y326166D01*
Y325583D01*
X12913Y324999D01*
X13496Y324416D01*
Y323833D01*
X12913Y323250D01*
X11746D01*
X11163Y323833D01*
Y324416D01*
X11746Y324999D01*
X11163Y325583D01*
Y326166D01*
X11746Y324999D02*
X12913D01*
X1833Y328750D02*
Y329333D01*
X2416D01*
Y328750D01*
X1833D01*
X7081Y331666D02*
X6498Y332249D01*
X5332D01*
X4749Y331666D01*
Y329333D01*
X5332Y328750D01*
X6498D01*
X7081Y329333D01*
X8248Y328750D02*
X9414D01*
X8831D01*
Y332249D01*
X8248Y331666D01*
X11163Y332249D02*
X13496D01*
Y331666D01*
X11163Y329333D01*
Y328750D01*
X1833Y334250D02*
Y334833D01*
X2416D01*
Y334250D01*
X1833D01*
X7081Y337166D02*
X6498Y337749D01*
X5332D01*
X4749Y337166D01*
Y334833D01*
X5332Y334250D01*
X6498D01*
X7081Y334833D01*
X8248Y334250D02*
X9414D01*
X8831D01*
Y337749D01*
X8248Y337166D01*
X13496Y337749D02*
X12330Y337166D01*
X11163Y335999D01*
Y334833D01*
X11746Y334250D01*
X12913D01*
X13496Y334833D01*
Y335416D01*
X12913Y335999D01*
X11163D01*
X104000Y68335D02*
X103333D01*
Y69002D01*
X104000D01*
Y68335D01*
X100668Y74334D02*
X100001Y73667D01*
Y72334D01*
X100668Y71668D01*
X103333D01*
X104000Y72334D01*
Y73667D01*
X103333Y74334D01*
X104000Y75666D02*
Y76999D01*
Y76333D01*
X100001D01*
X100668Y75666D01*
X104000Y81665D02*
Y78999D01*
X101334Y81665D01*
X100668D01*
X100001Y80998D01*
Y79665D01*
X100668Y78999D01*
X96636Y68669D02*
X95970D01*
Y69336D01*
X96636D01*
Y68669D01*
X93304Y74667D02*
X92638Y74001D01*
Y72668D01*
X93304Y72002D01*
X95970D01*
X96636Y72668D01*
Y74001D01*
X95970Y74667D01*
X96636Y76000D02*
Y77333D01*
Y76667D01*
X92638D01*
X93304Y76000D01*
X96636Y79333D02*
Y80665D01*
Y79999D01*
X92638D01*
X93304Y79333D01*
X89273Y68669D02*
X88606D01*
Y69336D01*
X89273D01*
Y68669D01*
X85940Y74667D02*
X85274Y74001D01*
Y72668D01*
X85940Y72002D01*
X88606D01*
X89273Y72668D01*
Y74001D01*
X88606Y74667D01*
X89273Y76000D02*
Y77333D01*
Y76667D01*
X85274D01*
X85940Y76000D01*
Y79333D02*
X85274Y79999D01*
Y81332D01*
X85940Y81998D01*
X88606D01*
X89273Y81332D01*
Y79999D01*
X88606Y79333D01*
X85940D01*
X81909Y68669D02*
X81243D01*
Y69336D01*
X81909D01*
Y68669D01*
X78577Y74667D02*
X77910Y74001D01*
Y72668D01*
X78577Y72002D01*
X81243D01*
X81909Y72668D01*
Y74001D01*
X81243Y74667D01*
Y76000D02*
X81909Y76667D01*
Y78000D01*
X81243Y78666D01*
X78577D01*
X77910Y78000D01*
Y76667D01*
X78577Y76000D01*
X79243D01*
X79910Y76667D01*
Y78666D01*
X74545Y68669D02*
X73879D01*
Y69336D01*
X74545D01*
Y68669D01*
X71213Y74667D02*
X70547Y74001D01*
Y72668D01*
X71213Y72002D01*
X73879D01*
X74545Y72668D01*
Y74001D01*
X73879Y74667D01*
X71213Y76000D02*
X70547Y76667D01*
Y78000D01*
X71213Y78666D01*
X71880D01*
X72546Y78000D01*
X73212Y78666D01*
X73879D01*
X74545Y78000D01*
Y76667D01*
X73879Y76000D01*
X73212D01*
X72546Y76667D01*
X71880Y76000D01*
X71213D01*
X72546Y76667D02*
Y78000D01*
X67182Y68669D02*
X66515D01*
Y69336D01*
X67182D01*
Y68669D01*
X63850Y74667D02*
X63183Y74001D01*
Y72668D01*
X63850Y72002D01*
X66515D01*
X67182Y72668D01*
Y74001D01*
X66515Y74667D01*
X63183Y76000D02*
Y78666D01*
X63850D01*
X66515Y76000D01*
X67182D01*
X59818Y68669D02*
X59152D01*
Y69336D01*
X59818D01*
Y68669D01*
X56486Y74667D02*
X55819Y74001D01*
Y72668D01*
X56486Y72002D01*
X59152D01*
X59818Y72668D01*
Y74001D01*
X59152Y74667D01*
X55819Y78666D02*
X56486Y77333D01*
X57819Y76000D01*
X59152D01*
X59818Y76667D01*
Y78000D01*
X59152Y78666D01*
X58485D01*
X57819Y78000D01*
Y76000D01*
X52455Y68669D02*
X51788D01*
Y69336D01*
X52455D01*
Y68669D01*
X49122Y74667D02*
X48456Y74001D01*
Y72668D01*
X49122Y72002D01*
X51788D01*
X52455Y72668D01*
Y74001D01*
X51788Y74667D01*
X48456Y78666D02*
Y76000D01*
X50455D01*
X49789Y77333D01*
Y78000D01*
X50455Y78666D01*
X51788D01*
X52455Y78000D01*
Y76667D01*
X51788Y76000D01*
X45091Y68669D02*
X44424D01*
Y69336D01*
X45091D01*
Y68669D01*
X41759Y74667D02*
X41092Y74001D01*
Y72668D01*
X41759Y72002D01*
X44424D01*
X45091Y72668D01*
Y74001D01*
X44424Y74667D01*
X45091Y78000D02*
X41092D01*
X43091Y76000D01*
Y78666D01*
X37727Y68669D02*
X37061D01*
Y69336D01*
X37727D01*
Y68669D01*
X34395Y74667D02*
X33729Y74001D01*
Y72668D01*
X34395Y72002D01*
X37061D01*
X37727Y72668D01*
Y74001D01*
X37061Y74667D01*
X34395Y76000D02*
X33729Y76667D01*
Y78000D01*
X34395Y78666D01*
X35061D01*
X35728Y78000D01*
Y77333D01*
Y78000D01*
X36394Y78666D01*
X37061D01*
X37727Y78000D01*
Y76667D01*
X37061Y76000D01*
X119999Y65002D02*
X119333D01*
Y65668D01*
X119999D01*
Y65002D01*
X116667Y71000D02*
X116001Y70333D01*
Y69000D01*
X116667Y68334D01*
X119333D01*
X119999Y69000D01*
Y70333D01*
X119333Y71000D01*
X119999Y74998D02*
Y72333D01*
X117333Y74998D01*
X116667D01*
X116001Y74332D01*
Y72999D01*
X116667Y72333D01*
X124168Y76501D02*
Y77167D01*
X124835D01*
Y76501D01*
X124168D01*
X130166Y79833D02*
X129500Y80499D01*
X128167D01*
X127500Y79833D01*
Y77167D01*
X128167Y76501D01*
X129500D01*
X130166Y77167D01*
X131499Y76501D02*
X132832D01*
X132166D01*
Y80499D01*
X131499Y79833D01*
M02*
