G04*
G04 #@! TF.GenerationSoftware,Altium Limited,Altium Designer,21.0.8 (223)*
G04*
G04 Layer_Color=16711935*
%FSLAX25Y25*%
%MOIN*%
G70*
G04*
G04 #@! TF.SameCoordinates,39A8B939-FCF9-4CCB-A2C1-C80A2B419B22*
G04*
G04*
G04 #@! TF.FilePolarity,Negative*
G04*
G01*
G75*
%ADD40C,0.08995*%
%ADD41C,0.07428*%
%ADD42R,0.10058X0.10058*%
%ADD43C,0.10058*%
%ADD44C,0.07991*%
%ADD45R,0.07991X0.07991*%
%ADD46R,0.07991X0.07991*%
%ADD47C,0.06200*%
%ADD94R,0.07106X0.07302*%
%ADD95R,0.02375X0.06115*%
D40*
X328997Y8847D02*
D03*
X356556D02*
D03*
D41*
X332934Y19477D02*
D03*
X352619D02*
D03*
D42*
X45500Y136500D02*
D03*
D43*
Y156185D02*
D03*
D44*
X359642Y318000D02*
D03*
Y308000D02*
D03*
Y298000D02*
D03*
Y288000D02*
D03*
Y278000D02*
D03*
Y268000D02*
D03*
Y258000D02*
D03*
Y248000D02*
D03*
Y238000D02*
D03*
Y228000D02*
D03*
Y218000D02*
D03*
Y208000D02*
D03*
Y198000D02*
D03*
Y188000D02*
D03*
Y178000D02*
D03*
Y168000D02*
D03*
Y158000D02*
D03*
Y148000D02*
D03*
Y138000D02*
D03*
X140077Y320484D02*
D03*
Y310484D02*
D03*
X111032Y335203D02*
D03*
X101032D02*
D03*
X111032Y305343D02*
D03*
X101032D02*
D03*
X176500Y97890D02*
D03*
X166500D02*
D03*
X342149Y88500D02*
D03*
X325324D02*
D03*
X250000Y128000D02*
D03*
Y138000D02*
D03*
Y148000D02*
D03*
Y158000D02*
D03*
Y168000D02*
D03*
Y178000D02*
D03*
Y188000D02*
D03*
Y198000D02*
D03*
Y208000D02*
D03*
Y218000D02*
D03*
Y228000D02*
D03*
Y238000D02*
D03*
Y248000D02*
D03*
Y258000D02*
D03*
Y268000D02*
D03*
Y278000D02*
D03*
Y288000D02*
D03*
Y298000D02*
D03*
Y308000D02*
D03*
X202500Y156000D02*
D03*
Y172500D02*
D03*
Y189000D02*
D03*
X212500Y203875D02*
D03*
Y218750D02*
D03*
Y233625D02*
D03*
Y248500D02*
D03*
Y262000D02*
D03*
X202500Y276000D02*
D03*
Y319059D02*
D03*
X51437Y275739D02*
D03*
X54000Y384500D02*
D03*
X21500D02*
D03*
X202500Y305425D02*
D03*
Y289947D02*
D03*
X358973Y88500D02*
D03*
D45*
X359642Y128000D02*
D03*
X140077Y330484D02*
D03*
X342149Y98500D02*
D03*
X325324D02*
D03*
X250000Y318000D02*
D03*
X51437Y285739D02*
D03*
X358973Y98500D02*
D03*
D46*
X121032Y335203D02*
D03*
Y305343D02*
D03*
X156500Y97890D02*
D03*
X212500Y156000D02*
D03*
Y172500D02*
D03*
Y189000D02*
D03*
X202500Y203875D02*
D03*
Y218750D02*
D03*
Y233625D02*
D03*
Y248500D02*
D03*
Y262000D02*
D03*
X212500Y276000D02*
D03*
Y319059D02*
D03*
X64000Y384500D02*
D03*
X11500D02*
D03*
X212500Y305425D02*
D03*
Y289947D02*
D03*
D47*
X333083Y182961D02*
D03*
X297500Y34000D02*
D03*
X305500Y71000D02*
D03*
X146000Y211500D02*
D03*
X173000Y183500D02*
D03*
X184000Y193500D02*
D03*
X184500Y200000D02*
D03*
X120844Y4862D02*
D03*
X127000Y9500D02*
D03*
X111843Y7384D02*
D03*
X288500Y330000D02*
D03*
Y324500D02*
D03*
X266500Y332000D02*
D03*
X260500Y352590D02*
D03*
X352142D02*
D03*
X151000Y314500D02*
D03*
Y326000D02*
D03*
X288500Y319000D02*
D03*
X366000Y35500D02*
D03*
X354000Y30000D02*
D03*
X345000Y45000D02*
D03*
X339500Y50500D02*
D03*
X361000Y54500D02*
D03*
X62500Y333500D02*
D03*
X128000Y105390D02*
D03*
X124161Y73084D02*
D03*
X111750Y33750D02*
D03*
X166500Y108500D02*
D03*
X155422Y75878D02*
D03*
X74878Y60653D02*
D03*
X151796Y33461D02*
D03*
X90500Y38000D02*
D03*
X152000Y41500D02*
D03*
X80862Y40071D02*
D03*
X154000Y22000D02*
D03*
X76000D02*
D03*
X134250Y57500D02*
D03*
X121000D02*
D03*
X107750D02*
D03*
X94500D02*
D03*
X147500D02*
D03*
X127710Y19549D02*
D03*
X324000Y67500D02*
D03*
X314134Y24634D02*
D03*
X334000Y282000D02*
D03*
X307898Y238726D02*
D03*
X295507Y238705D02*
D03*
X296283Y261035D02*
D03*
X308045Y261119D02*
D03*
X279000Y275500D02*
D03*
X86358Y279270D02*
D03*
X77500Y287500D02*
D03*
X86500Y306000D02*
D03*
X77500Y306500D02*
D03*
X359000Y349500D02*
D03*
X306000Y368000D02*
D03*
X118000Y193000D02*
D03*
X103000Y232000D02*
D03*
X56500Y213500D02*
D03*
X48500Y250000D02*
D03*
X10500Y193500D02*
D03*
X78000Y251000D02*
D03*
X64500Y228500D02*
D03*
X62000Y251000D02*
D03*
X17500Y244500D02*
D03*
X74000Y227500D02*
D03*
X131000Y320000D02*
D03*
X31326Y347986D02*
D03*
X32125Y332985D02*
D03*
X45000Y363500D02*
D03*
X36500Y293000D02*
D03*
X12892Y310500D02*
D03*
X67500Y309000D02*
D03*
X62000Y353000D02*
D03*
X10000D02*
D03*
X9000Y318500D02*
D03*
X25500Y317500D02*
D03*
X46500Y330500D02*
D03*
X47500Y355500D02*
D03*
X339721Y31445D02*
D03*
X345721D02*
D03*
D94*
X338839Y8847D02*
D03*
X346713D02*
D03*
D95*
X337658Y19477D02*
D03*
X340217D02*
D03*
X342776D02*
D03*
X345336D02*
D03*
X347895D02*
D03*
M02*
