M48
;Layer_Color=9474304
;FILE_FORMAT=2:4
INCH,TZ
;TYPE=PLATED
T1F00S00C0.0280
T2F00S00C0.0415
T3F00S00C0.0453
T4F00S00C0.0520
T5F00S00C0.0591
%
T01
X7600Y2200
X8086Y4007
X9050Y3800
X9450Y5750
X10775
X12100
X13425
X14750
X15200Y4150
X15180Y3346
X15400Y2200
X12771Y1955
X12700Y950
X12084Y486
X11184Y738
X11175Y3375
X12416Y7308
X15542Y7588
X12800Y10539
X7488Y6065
X16650Y10850
X30550Y7100
X29750Y3400
X31413Y2463
X33972Y3144
X34572
X35400Y3000
X36600Y3550
X36100Y5450
X34500Y4500
X33950Y5050
X32400Y6750
X33308Y18296
X33400Y28200
X30805Y26112
X29628Y26104
X29551Y23870
X30790Y23873
X27900Y27550
X18450Y20000
X18400Y19350
X17300Y18350
X14600Y21150
X11800Y19300
X10300Y23200
X7400Y22750
X6450Y22850
X5650Y21350
X6200Y25100
X4850Y25000
X7800Y25100
X8636Y27927
X7750Y28750
Y30650
X8650Y30600
X6750Y30900
X3650Y29300
X1289Y31050
X1750Y24450
X1050Y19350
X900Y31850
X2550Y31750
X3212Y33298
X3133Y34799
X4750Y35550
X4500Y36350
X6200Y35300
X6250Y33350
X4650Y33050
X1000Y35300
X13100Y32000
X15100Y31450
Y32600
X26650Y33200
X28850Y33000
Y32450
Y31900
X26050Y35259
X30600Y36800
X35214Y35259
X35900Y34950
T02
X33293Y1948
X35262
T03
X15650Y9789
X16650
X17650
X20250Y15600
X21250
X25000Y14800
Y13800
Y12800
X32532Y9850
Y8850
X34215
Y9850
X35897
Y8850
X35964Y12800
Y13800
Y14800
Y15800
Y16800
Y17800
Y18800
Y19800
Y20800
Y21800
Y22800
Y23800
Y24800
Y25800
Y26800
Y27800
Y28800
Y29800
Y30800
X25000
Y29800
Y28800
Y27800
Y26800
Y25800
Y24800
Y23800
Y22800
Y21800
Y20800
Y19800
Y18800
Y17800
Y16800
Y15800
X21250Y17250
X20250
Y18900
X21250
Y20387
X20250
Y21875
X21250
Y23363
X20250
Y24850
X21250
Y26200
X20250
Y27600
X21250
Y28995
X20250
Y30543
X21250
X14008Y31048
X12103Y30534
X11103
X10103
X5144Y28574
Y27574
X10103Y33520
X11103
X12103
X14008Y33048
Y32048
X6400Y38450
X5400
X2150
X1150
X20250Y31906
X21250
X25000Y31800
X35964
T04
X32900Y885
X35656
T05
X4550Y13650
Y15618
M30
