G04*
G04 #@! TF.GenerationSoftware,Altium Limited,Altium Designer,21.0.8 (223)*
G04*
G04 Layer_Color=32768*
%FSLAX25Y25*%
%MOIN*%
G70*
G04*
G04 #@! TF.SameCoordinates,39A8B939-FCF9-4CCB-A2C1-C80A2B419B22*
G04*
G04*
G04 #@! TF.FilePolarity,Positive*
G04*
G01*
G75*
%ADD11C,0.00394*%
%ADD13C,0.01000*%
%ADD96C,0.00197*%
D11*
X364391Y-3555D02*
Y28138D01*
X321162Y-3555D02*
X364391D01*
X321162D02*
Y28138D01*
X364391D01*
X135594Y171354D02*
X156264D01*
X135594D02*
Y190646D01*
X156264D01*
Y171354D02*
Y190646D01*
X307252Y390846D02*
X338748D01*
X307252Y336516D02*
Y390846D01*
Y336516D02*
X338748D01*
Y390846D01*
X273752Y336653D02*
X305248D01*
Y390984D01*
X273752D02*
X305248D01*
X273752Y336653D02*
Y390984D01*
X263874Y183158D02*
Y315047D01*
Y183158D02*
X347929D01*
Y315047D01*
X263874D02*
X347929D01*
X97476Y220354D02*
Y239646D01*
Y220354D02*
X118146D01*
Y239646D01*
X97476D02*
X118146D01*
X8421Y201921D02*
X51728D01*
X8421D02*
Y242079D01*
X51728D01*
Y201921D02*
Y242079D01*
X44098Y348386D02*
Y371614D01*
X18902D02*
X44098D01*
X18902Y348386D02*
Y371614D01*
Y348386D02*
X44098D01*
X76221Y5138D02*
Y34862D01*
Y5138D02*
X153779D01*
Y34862D01*
X76221D02*
X153779D01*
D13*
X393500Y0D02*
Y393500D01*
X0Y0D02*
X393500D01*
X0Y393500D02*
X393500D01*
X0D02*
X0Y0D01*
D96*
X89791Y146343D02*
X89780Y147344D01*
X89746Y148344D01*
X89690Y149343D01*
X89610Y150341D01*
X89509Y151337D01*
X89385Y152330D01*
X89238Y153321D01*
X89069Y154307D01*
X88878Y155290D01*
X88665Y156268D01*
X88430Y157241D01*
X88172Y158208D01*
X87893Y159170D01*
X87593Y160125D01*
X87270Y161072D01*
X86927Y162012D01*
X86562Y162945D01*
X86176Y163868D01*
X85770Y164783D01*
X85343Y165689D01*
X84895Y166584D01*
X84428Y167469D01*
X83941Y168343D01*
X83434Y169207D01*
X82907Y170058D01*
X82362Y170897D01*
X81797Y171724D01*
X81214Y172538D01*
X80613Y173338D01*
X79994Y174125D01*
X79357Y174898D01*
X78704Y175655D01*
X78033Y176398D01*
X77345Y177126D01*
X76641Y177838D01*
X75921Y178533D01*
X75186Y179213D01*
X74436Y179875D01*
X73671Y180521D01*
X72891Y181149D01*
X72097Y181759D01*
X71290Y182351D01*
X70470Y182924D01*
X69637Y183479D01*
X68791Y184015D01*
X67934Y184532D01*
X67065Y185029D01*
X66185Y185507D01*
X65295Y185964D01*
X64395Y186401D01*
X63484Y186818D01*
X62565Y187214D01*
X61637Y187590D01*
X60701Y187944D01*
X59757Y188277D01*
X58805Y188588D01*
X57847Y188878D01*
X56883Y189146D01*
X55913Y189392D01*
X54937Y189617D01*
X53957Y189819D01*
X52972Y189999D01*
X51983Y190157D01*
X50992Y190292D01*
X49997Y190405D01*
X49000Y190495D01*
X48001Y190563D01*
X47001Y190608D01*
X46000Y190631D01*
X44999D01*
X43999Y190608D01*
X42999Y190563D01*
X42000Y190495D01*
X41003Y190405D01*
X40008Y190292D01*
X39017Y190157D01*
X38028Y189999D01*
X37043Y189819D01*
X36063Y189617D01*
X35087Y189392D01*
X34117Y189146D01*
X33153Y188878D01*
X32195Y188588D01*
X31243Y188277D01*
X30299Y187944D01*
X29363Y187590D01*
X28435Y187214D01*
X27516Y186818D01*
X26605Y186401D01*
X25705Y185964D01*
X24814Y185507D01*
X23935Y185029D01*
X23066Y184532D01*
X22208Y184015D01*
X21363Y183479D01*
X20530Y182924D01*
X19710Y182351D01*
X18902Y181758D01*
X18109Y181148D01*
X17329Y180520D01*
X16564Y179875D01*
X15814Y179213D01*
X15078Y178533D01*
X14359Y177838D01*
X13655Y177126D01*
X12967Y176398D01*
X12296Y175655D01*
X11642Y174897D01*
X11006Y174125D01*
X10387Y173338D01*
X9786Y172538D01*
X9203Y171724D01*
X8638Y170897D01*
X8093Y170058D01*
X7566Y169207D01*
X7059Y168343D01*
X6572Y167469D01*
X6104Y166584D01*
X5657Y165688D01*
X5230Y164783D01*
X4824Y163868D01*
X4438Y162944D01*
X4073Y162012D01*
X3730Y161072D01*
X3407Y160124D01*
X3107Y159169D01*
X2828Y158208D01*
X2570Y157241D01*
X2335Y156268D01*
X2122Y155290D01*
X1931Y154307D01*
X1762Y153320D01*
X1615Y152330D01*
X1491Y151337D01*
X1390Y150341D01*
X1310Y149343D01*
X1254Y148344D01*
X1220Y147343D01*
X1209Y146342D01*
X1220Y145341D01*
X1254Y144341D01*
X1310Y143341D01*
X1390Y142343D01*
X1491Y141348D01*
X1615Y140354D01*
X1762Y139364D01*
X1931Y138377D01*
X2122Y137395D01*
X2335Y136417D01*
X2571Y135444D01*
X2828Y134476D01*
X3107Y133515D01*
X3408Y132560D01*
X3730Y131613D01*
X4073Y130672D01*
X4438Y129740D01*
X4824Y128816D01*
X5230Y127902D01*
X5657Y126996D01*
X6105Y126101D01*
X6572Y125216D01*
X7060Y124341D01*
X7567Y123478D01*
X8093Y122627D01*
X8638Y121787D01*
X9203Y120961D01*
X9786Y120147D01*
X10387Y119346D01*
X11006Y118560D01*
X11643Y117787D01*
X12297Y117029D01*
X12968Y116287D01*
X13655Y115559D01*
X14359Y114847D01*
X15079Y114151D01*
X15814Y113472D01*
X16564Y112810D01*
X17330Y112164D01*
X18109Y111536D01*
X18903Y110926D01*
X19710Y110334D01*
X20530Y109760D01*
X21363Y109206D01*
X22209Y108670D01*
X23066Y108153D01*
X23935Y107656D01*
X24815Y107178D01*
X25705Y106721D01*
X26606Y106283D01*
X27516Y105867D01*
X28435Y105471D01*
X29363Y105095D01*
X30300Y104741D01*
X31244Y104408D01*
X32195Y104097D01*
X33153Y103807D01*
X34117Y103539D01*
X35088Y103292D01*
X36063Y103068D01*
X37044Y102866D01*
X38028Y102686D01*
X39017Y102528D01*
X40009Y102393D01*
X41003Y102280D01*
X42000Y102190D01*
X42999Y102122D01*
X43999Y102077D01*
X45000Y102054D01*
X46001Y102054D01*
X47002Y102077D01*
X48002Y102122D01*
X49000Y102190D01*
X49997Y102280D01*
X50992Y102393D01*
X51984Y102528D01*
X52972Y102686D01*
X53957Y102866D01*
X54937Y103068D01*
X55913Y103293D01*
X56883Y103539D01*
X57847Y103807D01*
X58806Y104097D01*
X59757Y104409D01*
X60701Y104741D01*
X61637Y105096D01*
X62565Y105471D01*
X63485Y105867D01*
X64395Y106284D01*
X65295Y106721D01*
X66185Y107178D01*
X67065Y107656D01*
X67934Y108153D01*
X68791Y108670D01*
X69637Y109206D01*
X70470Y109761D01*
X71290Y110334D01*
X72097Y110926D01*
X72891Y111537D01*
X73671Y112164D01*
X74436Y112810D01*
X75186Y113472D01*
X75921Y114152D01*
X76641Y114847D01*
X77345Y115559D01*
X78033Y116287D01*
X78703Y117030D01*
X79357Y117788D01*
X79994Y118560D01*
X80613Y119347D01*
X81214Y120147D01*
X81797Y120961D01*
X82362Y121788D01*
X82907Y122627D01*
X83434Y123478D01*
X83941Y124341D01*
X84428Y125216D01*
X84895Y126101D01*
X85343Y126996D01*
X85770Y127902D01*
X86176Y128816D01*
X86562Y129740D01*
X86927Y130673D01*
X87270Y131613D01*
X87593Y132560D01*
X87893Y133515D01*
X88172Y134476D01*
X88429Y135444D01*
X88665Y136417D01*
X88878Y137395D01*
X89069Y138377D01*
X89238Y139364D01*
X89385Y140354D01*
X89509Y141348D01*
X89610Y142343D01*
X89689Y143341D01*
X89746Y144341D01*
X89780Y145341D01*
X89791Y146342D01*
X271697Y315559D02*
X281303D01*
X271697D02*
Y320441D01*
X281303D01*
Y315559D02*
Y320441D01*
X271697Y321059D02*
X281303D01*
X271697D02*
Y325941D01*
X281303D01*
Y321059D02*
Y325941D01*
X165177Y208807D02*
Y222193D01*
X157303Y208807D02*
X165177D01*
X157303D02*
Y222193D01*
X165177D01*
X143047Y215063D02*
X156433D01*
X143047D02*
Y222937D01*
X156433D01*
Y215063D02*
Y222937D01*
X143047Y232937D02*
X156433D01*
Y225063D02*
Y232937D01*
X143047Y225063D02*
X156433D01*
X143047D02*
Y232937D01*
Y234563D02*
X156433D01*
X143047D02*
Y242437D01*
X156433D01*
Y234563D02*
Y242437D01*
X156709Y193421D02*
Y208579D01*
X142772Y193421D02*
X156709D01*
X142772D02*
Y208579D01*
X156709D01*
X141677Y193307D02*
Y206693D01*
X133803Y193307D02*
X141677D01*
X133803D02*
Y206693D01*
X141677D01*
X128547Y215063D02*
X141933D01*
X128547D02*
Y222937D01*
X141933D01*
Y215063D02*
Y222937D01*
X128547Y232937D02*
X141933D01*
Y225063D02*
Y232937D01*
X128547Y225063D02*
X141933D01*
X128547D02*
Y232937D01*
Y234563D02*
X141933D01*
X128547D02*
Y242437D01*
X141933D01*
Y234563D02*
Y242437D01*
X365370Y122016D02*
Y323984D01*
X353913D02*
X365370D01*
X353913Y122016D02*
Y323984D01*
Y122016D02*
X365370D01*
X281303Y326559D02*
Y331441D01*
X271697D02*
X281303D01*
X271697Y326559D02*
Y331441D01*
Y326559D02*
X281303D01*
X146357Y303909D02*
Y337059D01*
X133798Y303909D02*
X146357D01*
X133798D02*
Y337059D01*
X146357D01*
X94664Y320563D02*
X108049D01*
X94664D02*
Y328437D01*
X108049D01*
Y320563D02*
Y328437D01*
X94457Y328924D02*
X127607D01*
X94457D02*
Y341483D01*
X127607D01*
Y328924D02*
Y341483D01*
X94457Y299064D02*
X127607D01*
X94457D02*
Y311623D01*
X127607D01*
Y299064D02*
Y311623D01*
X94664Y312063D02*
X108049D01*
X94664D02*
Y319937D01*
X108049D01*
Y312063D02*
Y319937D01*
X114015Y312063D02*
X127401D01*
X114015D02*
Y319937D01*
X127401D01*
Y312063D02*
Y319937D01*
X114015Y320563D02*
X127401D01*
X114015D02*
Y328437D01*
X127401D01*
Y320563D02*
Y328437D01*
X87437Y45307D02*
Y58693D01*
X79563Y45307D02*
X87437D01*
X79563D02*
Y58693D01*
X87437D01*
X71063Y45307D02*
Y58693D01*
X78937D01*
Y45307D02*
Y58693D01*
X71063Y45307D02*
X78937D01*
X129059Y74803D02*
X133941D01*
Y65197D02*
Y74803D01*
X129059Y65197D02*
X133941D01*
X129059D02*
Y74803D01*
X134413Y65079D02*
Y74921D01*
Y65079D02*
X148587D01*
Y74921D01*
X134413D02*
X148587D01*
X148303Y75559D02*
Y80441D01*
X138697D02*
X148303D01*
X138697Y75559D02*
Y80441D01*
Y75559D02*
X148303D01*
X167126Y73835D02*
Y78165D01*
X157874D02*
X167126D01*
X157874Y73835D02*
Y78165D01*
Y73835D02*
X167126D01*
X167685Y78685D02*
Y89315D01*
X153315D02*
X167685D01*
X153315Y78685D02*
Y89315D01*
Y78685D02*
X167685D01*
X149925Y91610D02*
Y104169D01*
Y91610D02*
X183075D01*
Y104169D01*
X149925D02*
X183075D01*
X169807Y112437D02*
X183193D01*
Y104563D02*
Y112437D01*
X169807Y104563D02*
X183193D01*
X169807D02*
Y112437D01*
X149807Y104563D02*
X163193D01*
X149807D02*
Y112437D01*
X163193D01*
Y104563D02*
Y112437D01*
X135425Y101138D02*
X148575D01*
X135425Y80862D02*
Y101138D01*
Y80862D02*
X148575D01*
Y101138D01*
X121425D02*
X134575D01*
X121425Y80862D02*
Y101138D01*
Y80862D02*
X134575D01*
Y101138D01*
X107425Y80862D02*
X120575D01*
Y101138D01*
X107425D02*
X120575D01*
X107425Y80862D02*
Y101138D01*
X335771Y82024D02*
Y104976D01*
Y82024D02*
X348527D01*
Y104976D01*
X335771D02*
X348527D01*
X318947Y82024D02*
Y104976D01*
Y82024D02*
X331702D01*
Y104976D01*
X318947D02*
X331702D01*
X272937Y336807D02*
Y350193D01*
X265063Y336807D02*
X272937D01*
X265063D02*
Y350193D01*
X272937D01*
X256563Y336807D02*
Y350193D01*
X264437D01*
Y336807D02*
Y350193D01*
X256563Y336807D02*
X264437D01*
X244272Y122016D02*
Y323984D01*
Y122016D02*
X255728D01*
Y323984D01*
X244272D02*
X255728D01*
X196024Y162378D02*
X218976D01*
X196024Y149622D02*
Y162378D01*
Y149622D02*
X218976D01*
Y162378D01*
X196024Y178878D02*
X218976D01*
X196024Y166122D02*
Y178878D01*
Y166122D02*
X218976D01*
Y178878D01*
X196024Y195378D02*
X218976D01*
X196024Y182622D02*
Y195378D01*
Y182622D02*
X218976D01*
Y195378D01*
X196024Y197497D02*
X218976D01*
Y210253D01*
X196024D02*
X218976D01*
X196024Y197497D02*
Y210253D01*
Y212372D02*
X218976D01*
Y225128D01*
X196024D02*
X218976D01*
X196024Y212372D02*
Y225128D01*
Y227247D02*
X218976D01*
Y240003D01*
X196024D02*
X218976D01*
X196024Y227247D02*
Y240003D01*
Y242122D02*
X218976D01*
Y254878D01*
X196024D02*
X218976D01*
X196024Y242122D02*
Y254878D01*
Y255622D02*
X218976D01*
Y268378D01*
X196024D02*
X218976D01*
X196024Y255622D02*
Y268378D01*
Y282378D02*
X218976D01*
X196024Y269622D02*
Y282378D01*
Y269622D02*
X218976D01*
Y282378D01*
X196024Y325437D02*
X218976D01*
X196024Y312681D02*
Y325437D01*
Y312681D02*
X218976D01*
Y325437D01*
X101307Y184937D02*
X114693D01*
X101307Y177063D02*
Y184937D01*
Y177063D02*
X114693D01*
Y184937D01*
X101307Y192937D02*
X114693D01*
Y185063D02*
Y192937D01*
X101307Y185063D02*
X114693D01*
X101307D02*
Y192937D01*
X101031Y193421D02*
Y208579D01*
X114969D01*
Y193421D02*
Y208579D01*
X101031Y193421D02*
X114969D01*
X101307Y217437D02*
X114693D01*
X101307Y209563D02*
Y217437D01*
Y209563D02*
X114693D01*
Y217437D01*
X8697Y196559D02*
Y201441D01*
X18303D01*
Y196559D02*
Y201441D01*
X8697Y196559D02*
X18303D01*
X52563Y216807D02*
Y230193D01*
Y216807D02*
X60437D01*
Y230193D01*
X52563D02*
X60437D01*
X70063Y231807D02*
Y245193D01*
Y231807D02*
X77937D01*
Y245193D01*
X70063D02*
X77937D01*
X69437Y231807D02*
Y245193D01*
X61563D02*
X69437D01*
X61563Y231807D02*
Y245193D01*
Y231807D02*
X69437D01*
X60541Y235532D02*
Y245178D01*
X52667Y235532D02*
X60541D01*
X52667D02*
Y245178D01*
X60541D01*
X62303Y246059D02*
Y250941D01*
X52697Y246059D02*
X62303D01*
X52697D02*
Y250941D01*
X62303D01*
X15807Y306063D02*
X29193D01*
X15807D02*
Y313937D01*
X29193D01*
Y306063D02*
Y313937D01*
X15807Y297563D02*
X29193D01*
X15807D02*
Y305437D01*
X29193D01*
Y297563D02*
Y305437D01*
X27437Y270807D02*
Y284193D01*
X19563D02*
X27437D01*
X19563Y270807D02*
Y284193D01*
Y270807D02*
X27437D01*
X37437Y297807D02*
Y311193D01*
X29563Y297807D02*
X37437D01*
X29563D02*
Y311193D01*
X37437D01*
X38059Y299697D02*
X42941D01*
Y309303D01*
X38059D02*
X42941D01*
X38059Y299697D02*
Y309303D01*
X45059Y269263D02*
Y292216D01*
Y269263D02*
X57815D01*
Y292216D01*
X45059D02*
X57815D01*
X49807Y312937D02*
X63193D01*
Y305063D02*
Y312937D01*
X49807Y305063D02*
X63193D01*
X49807D02*
Y312937D01*
Y313488D02*
X63193D01*
X49807D02*
Y321362D01*
X63193D01*
Y313488D02*
Y321362D01*
X49807Y321913D02*
X63193D01*
X49807D02*
Y329787D01*
X63193D01*
Y321913D02*
Y329787D01*
X29110Y314535D02*
Y331465D01*
X46039D01*
Y314535D02*
Y331465D01*
X29110Y314535D02*
X46039D01*
X14697Y333059D02*
Y337941D01*
Y333059D02*
X24303D01*
Y337941D01*
X14697D02*
X24303D01*
X14697Y327559D02*
Y332441D01*
Y327559D02*
X24303D01*
Y332441D01*
X14697D02*
X24303D01*
X14697Y322059D02*
Y326941D01*
Y322059D02*
X24303D01*
Y326941D01*
X14697D02*
X24303D01*
X34941Y335697D02*
Y345303D01*
X30059Y335697D02*
X34941D01*
X30059D02*
Y345303D01*
X34941D01*
X47524Y390878D02*
X70476D01*
X47524Y378122D02*
Y390878D01*
Y378122D02*
X70476D01*
Y390878D01*
X5024Y378122D02*
X27976D01*
Y390878D01*
X5024D02*
X27976D01*
X5024Y378122D02*
Y390878D01*
X59559Y347303D02*
X64441D01*
X59559Y337697D02*
Y347303D01*
Y337697D02*
X64441D01*
Y347303D01*
X65563Y337807D02*
Y351193D01*
X73437D01*
Y337807D02*
Y351193D01*
X65563Y337807D02*
X73437D01*
X45059Y347303D02*
X49941D01*
X45059Y337697D02*
Y347303D01*
Y337697D02*
X49941D01*
Y347303D01*
X50563Y337807D02*
Y351193D01*
X58437D01*
Y337807D02*
Y351193D01*
X50563Y337807D02*
X58437D01*
X352697Y33059D02*
X362303D01*
X352697D02*
Y37941D01*
X362303D01*
Y33059D02*
Y37941D01*
X302421Y27031D02*
X317579D01*
X302421D02*
Y40968D01*
X317579D01*
Y27031D02*
Y40968D01*
X330010Y35278D02*
X354813D01*
Y60081D01*
X330010D02*
X354813D01*
X330010Y35278D02*
Y60081D01*
X361779Y50748D02*
X366661D01*
X361779Y41142D02*
Y50748D01*
Y41142D02*
X366661D01*
Y50748D01*
X301921Y43031D02*
X317079D01*
X301921D02*
Y56968D01*
X317079D01*
Y43031D02*
Y56968D01*
X355780Y50248D02*
X360661D01*
X355780Y40642D02*
Y50248D01*
Y40642D02*
X360661D01*
Y50248D01*
X327937Y51807D02*
Y65193D01*
X320063Y51807D02*
X327937D01*
X320063D02*
Y65193D01*
X327937D01*
X327737Y33451D02*
Y46837D01*
X319863Y33451D02*
X327737D01*
X319863D02*
Y46837D01*
X327737D01*
X218976Y299047D02*
Y311803D01*
X196024Y299047D02*
X218976D01*
X196024D02*
Y311803D01*
X218976D01*
Y283570D02*
Y296325D01*
X196024Y283570D02*
X218976D01*
X196024D02*
Y296325D01*
X218976D01*
X96941Y45197D02*
Y54803D01*
X92059Y45197D02*
X96941D01*
X92059D02*
Y54803D01*
X96941D01*
X102830Y45197D02*
Y54803D01*
X97948Y45197D02*
X102830D01*
X97948D02*
Y54803D01*
X102830D01*
X108719Y45197D02*
Y54803D01*
X103837Y45197D02*
X108719D01*
X103837D02*
Y54803D01*
X108719D01*
X114608Y45197D02*
Y54803D01*
X109726Y45197D02*
X114608D01*
X109726D02*
Y54803D01*
X114608D01*
X120496Y45197D02*
Y54803D01*
X115615Y45197D02*
X120496D01*
X115615D02*
Y54803D01*
X120496D01*
X126385Y45197D02*
Y54803D01*
X121503Y45197D02*
X126385D01*
X121503D02*
Y54803D01*
X126385D01*
X132274Y45197D02*
Y54803D01*
X127392Y45197D02*
X132274D01*
X127392D02*
Y54803D01*
X132274D01*
X138163Y45197D02*
Y54803D01*
X133281Y45197D02*
X138163D01*
X133281D02*
Y54803D01*
X138163D01*
X144052Y45197D02*
Y54803D01*
X139170Y45197D02*
X144052D01*
X139170D02*
Y54803D01*
X144052D01*
X149941Y45197D02*
Y54803D01*
X145059Y45197D02*
X149941D01*
X145059D02*
Y54803D01*
X149941D01*
X352595Y104976D02*
X365351D01*
Y82024D02*
Y104976D01*
X352595Y82024D02*
X365351D01*
X352595D02*
Y104976D01*
X361441Y337197D02*
Y346803D01*
X356559Y337197D02*
X361441D01*
X356559D02*
Y346803D01*
X361441D01*
X348205Y336807D02*
X356079D01*
Y350193D01*
X348205D02*
X356079D01*
X348205Y336807D02*
Y350193D01*
X339705D02*
X347579D01*
X339705Y336807D02*
Y350193D01*
Y336807D02*
X347579D01*
Y350193D01*
M02*
