G04*
G04 #@! TF.GenerationSoftware,Altium Limited,Altium Designer,21.0.8 (223)*
G04*
G04 Layer_Physical_Order=1*
G04 Layer_Color=255*
%FSLAX25Y25*%
%MOIN*%
G70*
G04*
G04 #@! TF.SameCoordinates,39A8B939-FCF9-4CCB-A2C1-C80A2B419B22*
G04*
G04*
G04 #@! TF.FilePolarity,Positive*
G04*
G01*
G75*
%ADD13C,0.01000*%
%ADD48R,0.02126X0.03701*%
%ADD49R,0.05709X0.03937*%
%ADD50R,0.03937X0.05709*%
%ADD51R,0.02362X0.04921*%
%ADD52R,0.03150X0.03543*%
%ADD53R,0.03701X0.02126*%
%ADD54R,0.04331X0.07677*%
%ADD55R,0.02953X0.02362*%
%ADD56R,0.04134X0.01968*%
%ADD57R,0.03150X0.04528*%
%ADD58R,0.05512X0.08268*%
%ADD59R,0.04331X0.04331*%
%ADD60R,0.05906X0.03543*%
%ADD61R,0.03543X0.05906*%
%ADD62R,0.10236X0.32284*%
%ADD63R,0.01181X0.01870*%
%ADD64R,0.00787X0.03347*%
%ADD65R,0.03347X0.00787*%
%ADD66R,0.06693X0.06693*%
%ADD67R,0.05709X0.15315*%
%ADD68R,0.10433X0.09055*%
%ADD69R,0.01181X0.05512*%
%ADD70R,0.04921X0.02362*%
%ADD71R,0.13189X0.13189*%
%ADD72R,0.03937X0.01181*%
%ADD73R,0.01181X0.03937*%
%ADD74C,0.00600*%
%ADD75C,0.00750*%
%ADD76C,0.00900*%
%ADD77C,0.00800*%
%ADD78C,0.07795*%
%ADD79C,0.06228*%
%ADD80R,0.08858X0.08858*%
%ADD81C,0.08858*%
%ADD82C,0.06791*%
%ADD83R,0.06791X0.06791*%
%ADD84R,0.06791X0.06791*%
%ADD85C,0.05000*%
G36*
X355142Y345000D02*
X349142D01*
Y356000D01*
X355142D01*
Y345000D01*
D02*
G37*
G36*
X263500D02*
X257500D01*
Y356000D01*
X263500D01*
Y345000D01*
D02*
G37*
G36*
X65500Y355500D02*
Y351000D01*
X64500Y350000D01*
Y344500D01*
X59500D01*
Y350500D01*
X58500Y351500D01*
X58500Y355500D01*
X59500Y356500D01*
X64500D01*
X65500Y355500D01*
D02*
G37*
G36*
X51000Y357500D02*
Y344500D01*
X45000D01*
X45000Y346500D01*
X47500Y349000D01*
Y351000D01*
X44500Y354000D01*
X44500Y358000D01*
X45000Y358500D01*
X50000D01*
X51000Y357500D01*
D02*
G37*
G36*
X362000Y344000D02*
X356000D01*
Y353000D01*
X362000D01*
Y344000D01*
D02*
G37*
G36*
X34500Y348500D02*
Y342500D01*
X30500D01*
X28649Y344351D01*
X28649Y350649D01*
X29000Y351000D01*
X32000Y351000D01*
X34500Y348500D01*
D02*
G37*
G36*
X317500Y339000D02*
X295000D01*
Y387500D01*
X317500D01*
Y339000D01*
D02*
G37*
G36*
X53500Y330000D02*
X50000Y330000D01*
X47500Y327500D01*
X45000D01*
X44000Y328500D01*
Y331500D01*
X47500Y335000D01*
X53500D01*
X53500Y330000D01*
D02*
G37*
G36*
X28000Y388987D02*
X28000Y332000D01*
X33000Y327000D01*
Y325742D01*
X28580Y325742D01*
X25338Y322500D01*
X21500D01*
Y338500D01*
X17500Y342500D01*
Y388646D01*
X17854Y389000D01*
X28000Y388987D01*
D02*
G37*
G36*
X155000Y310500D02*
X149575D01*
X143575Y316500D01*
X138500D01*
X136000Y319000D01*
Y322000D01*
X138500Y324500D01*
X143500Y324500D01*
X149000Y330000D01*
X155000Y330000D01*
Y310500D01*
D02*
G37*
G36*
X16547Y340710D02*
X17913Y339087D01*
X18000Y324000D01*
X21500Y320500D01*
X26500Y320500D01*
X29500Y323500D01*
X33500D01*
X33581Y323581D01*
X33942D01*
Y323942D01*
X34000Y324000D01*
Y326500D01*
X41000D01*
Y319500D01*
X40144D01*
Y321425D01*
X40068Y321806D01*
X39852Y322128D01*
X38278Y323703D01*
X37955Y323918D01*
X37575Y323994D01*
X37194Y323918D01*
X36872Y323703D01*
X36656Y323380D01*
X36581Y323000D01*
X36656Y322620D01*
X36872Y322297D01*
X38155Y321013D01*
Y319500D01*
X33500D01*
X28500Y314500D01*
X8000D01*
X5000Y317500D01*
Y388500D01*
X5500Y389000D01*
X16500D01*
X16547Y340710D01*
D02*
G37*
G36*
X290500Y335000D02*
X292000Y333500D01*
X292000Y315000D01*
X291000Y314000D01*
X278500D01*
X277000Y315500D01*
X277000Y334000D01*
X278000Y335000D01*
X290500Y335000D01*
D02*
G37*
G36*
X75500Y329000D02*
X98500D01*
X100000Y327500D01*
X100000Y313000D01*
X94500Y313000D01*
X85500Y322000D01*
X58500Y322000D01*
X57000Y323500D01*
Y334000D01*
X60500Y337500D01*
X67000D01*
X75500Y329000D01*
D02*
G37*
G36*
X134000Y325000D02*
Y315000D01*
X131500Y312500D01*
X122500D01*
X122000Y313000D01*
Y327500D01*
X131500D01*
X134000Y325000D01*
D02*
G37*
G36*
X16500Y313000D02*
X21000D01*
Y307000D01*
X16500D01*
X16000Y306500D01*
X10000D01*
Y313500D01*
X16000D01*
X16500Y313000D01*
D02*
G37*
G36*
X71091Y311500D02*
Y306500D01*
X70091Y305500D01*
X65591D01*
X64591Y306500D01*
X59091D01*
Y311500D01*
X65091D01*
X66091Y312500D01*
X70091Y312500D01*
X71091Y311500D01*
D02*
G37*
G36*
X42500Y291500D02*
X41000Y290000D01*
X32000D01*
X30500Y291500D01*
Y303000D01*
X42500D01*
Y291500D01*
D02*
G37*
G36*
X344000Y279500D02*
X332500D01*
X331000Y281000D01*
Y283000D01*
X332500Y284500D01*
X344000D01*
Y279500D01*
D02*
G37*
G36*
X271000Y335000D02*
X275506Y330494D01*
X275506Y280000D01*
X274500Y279000D01*
X270992Y279000D01*
X269500Y279000D01*
X268500Y280000D01*
Y283500D01*
X270500Y285500D01*
X270500Y327992D01*
X269508Y329000D01*
X265489Y329000D01*
X263500Y331000D01*
Y332989D01*
X265489Y335000D01*
X266500Y335000D01*
X271000Y335000D01*
D02*
G37*
G36*
X282000Y276500D02*
Y274500D01*
X280500Y273000D01*
X269000D01*
Y278000D01*
X280500D01*
X282000Y276500D01*
D02*
G37*
G36*
X23000Y246500D02*
Y209000D01*
X23000Y197000D01*
X15000Y197000D01*
X15000Y202000D01*
X11000Y206000D01*
Y246000D01*
X12500Y247500D01*
X16378D01*
Y244500D01*
X16464Y244071D01*
X16707Y243707D01*
X17071Y243464D01*
X17500Y243378D01*
X17929Y243464D01*
X18293Y243707D01*
X18536Y244071D01*
X18621Y244500D01*
Y247500D01*
X22000D01*
X23000Y246500D01*
D02*
G37*
G36*
X54000Y280000D02*
X56000Y278000D01*
X56000Y247000D01*
X55000Y246000D01*
X55000Y242500D01*
X50000Y242500D01*
X45000Y247500D01*
X45000Y278000D01*
X47000Y280000D01*
X54000Y280000D01*
D02*
G37*
G36*
X311000Y262955D02*
Y236500D01*
X310500Y236000D01*
X293000D01*
X292500Y236500D01*
Y263000D01*
X293500Y264000D01*
X309955D01*
X311000Y262955D01*
D02*
G37*
G36*
X114379Y234121D02*
Y229813D01*
X113379Y228813D01*
X99879Y228813D01*
X98879Y229813D01*
X98879Y237313D01*
X101879Y240313D01*
X108187D01*
X114379Y234121D01*
D02*
G37*
G36*
X84000Y262000D02*
X84000Y226000D01*
X79000Y221000D01*
X65500D01*
X60500Y226000D01*
X60500Y238500D01*
X60000Y239000D01*
X56500D01*
X56000Y239500D01*
Y245000D01*
X57500Y246500D01*
Y261500D01*
X60500Y264500D01*
X81500D01*
X84000Y262000D01*
D02*
G37*
G36*
X55000Y239000D02*
Y235024D01*
X47500Y227524D01*
Y207500D01*
X44500Y204500D01*
X34500D01*
X33500Y205500D01*
Y238500D01*
X35000Y240000D01*
X54000D01*
X55000Y239000D01*
D02*
G37*
G36*
X147500Y233000D02*
X149000Y231500D01*
X149000Y203500D01*
X147500Y202000D01*
X144500D01*
X143000Y203500D01*
Y231500D01*
X144500Y233000D01*
X147500Y233000D01*
D02*
G37*
G36*
X13500Y200000D02*
Y191500D01*
X12500Y190500D01*
X8500D01*
X7500Y191500D01*
Y200000D01*
X8500Y201000D01*
X12500D01*
X13500Y200000D01*
D02*
G37*
G36*
X120813Y196879D02*
Y188379D01*
X117813Y185379D01*
X110313Y185379D01*
X109313Y186379D01*
X109313Y199879D01*
X110313Y200879D01*
X116813D01*
X120813Y196879D01*
D02*
G37*
G36*
X335583Y181461D02*
X334083Y179961D01*
X332083D01*
X330583Y181461D01*
Y192961D01*
X335583D01*
Y181461D01*
D02*
G37*
G36*
X175502Y111017D02*
X175482Y105982D01*
X175000Y105500D01*
X158000Y105500D01*
X157500Y106000D01*
X157500Y111000D01*
X158000Y111500D01*
X175000Y111500D01*
X175502Y111017D01*
D02*
G37*
G36*
X162575Y73373D02*
X162202Y73000D01*
X153075D01*
X152575Y73500D01*
Y78500D01*
X153075Y79000D01*
X162575D01*
Y73373D01*
D02*
G37*
G36*
X78000Y63000D02*
Y53500D01*
X72000D01*
Y62202D01*
X73298Y63500D01*
X77500D01*
X78000Y63000D01*
D02*
G37*
G36*
X151000Y58500D02*
Y52000D01*
X150500Y51500D01*
X80500D01*
X80000Y52000D01*
Y60000D01*
X80500Y60500D01*
X149000D01*
X151000Y58500D01*
D02*
G37*
G36*
X367500Y53500D02*
Y47500D01*
X367000Y47000D01*
X356000D01*
X355500Y47500D01*
Y54500D01*
X359000Y58000D01*
X363000D01*
X367500Y53500D01*
D02*
G37*
G36*
X371500Y44500D02*
X375000Y41000D01*
X375000Y33000D01*
X368500Y26500D01*
X351500D01*
X350000Y28000D01*
Y31500D01*
X351500Y33000D01*
X356000D01*
X357000Y32000D01*
X367000Y32000D01*
X369000Y34000D01*
Y34642D01*
X369020Y34691D01*
X369127Y35500D01*
X369020Y36309D01*
X369000Y36358D01*
X369000Y39500D01*
X368000Y40500D01*
X354000D01*
X351000Y37500D01*
Y36500D01*
X350500Y36000D01*
X347651D01*
X347539Y36111D01*
Y40485D01*
X349606D01*
Y40498D01*
X350000Y40500D01*
Y42500D01*
X355000D01*
X357000Y44500D01*
X371500Y44500D01*
D02*
G37*
G36*
X157000Y25500D02*
Y18500D01*
X155000Y16500D01*
X139500D01*
X139000Y17000D01*
Y27000D01*
X139500Y27500D01*
X155000D01*
X157000Y25500D01*
D02*
G37*
G36*
X91000Y27000D02*
Y17000D01*
X90500Y16500D01*
X75000D01*
X73000Y18500D01*
Y25500D01*
X75000Y27500D01*
X90500D01*
X91000Y27000D01*
D02*
G37*
%LPC*%
G36*
X59763Y245190D02*
X57382D01*
Y242120D01*
X59763D01*
Y242533D01*
X60381D01*
X60707Y242207D01*
X60707Y242207D01*
X61071Y241964D01*
X61500Y241879D01*
X62046D01*
Y239672D01*
X68954D01*
Y241119D01*
X70546D01*
Y239672D01*
X77454D01*
Y244809D01*
X70546D01*
Y243362D01*
X68954D01*
Y244809D01*
X62046D01*
Y244748D01*
X61859Y244610D01*
X61546Y244510D01*
X61275Y244691D01*
X60846Y244776D01*
X60845Y244776D01*
X59763D01*
Y245190D01*
D02*
G37*
G36*
X77454Y237328D02*
X70546D01*
Y232191D01*
X72878D01*
Y230391D01*
X72437Y230208D01*
X71789Y229711D01*
X71292Y229063D01*
X70980Y228309D01*
X70873Y227500D01*
X70980Y226691D01*
X71292Y225937D01*
X71789Y225289D01*
X72437Y224792D01*
X73191Y224480D01*
X74000Y224373D01*
X74809Y224480D01*
X75563Y224792D01*
X76211Y225289D01*
X76708Y225937D01*
X77020Y226691D01*
X77127Y227500D01*
X77020Y228309D01*
X76708Y229063D01*
X76211Y229711D01*
X75563Y230208D01*
X75122Y230391D01*
Y232191D01*
X77454D01*
Y237328D01*
D02*
G37*
G36*
X146000Y206275D02*
X145571Y206190D01*
X145207Y205947D01*
X145187Y205927D01*
X144944Y205563D01*
X144859Y205134D01*
X144944Y204705D01*
X145187Y204341D01*
X145551Y204098D01*
X145980Y204012D01*
X146409Y204098D01*
X146773Y204341D01*
X146793Y204361D01*
X147036Y204724D01*
X147122Y205153D01*
X147036Y205583D01*
X146793Y205947D01*
X146429Y206190D01*
X146000Y206275D01*
D02*
G37*
%LPD*%
D13*
X345689Y204811D02*
X351000Y199500D01*
Y191500D02*
X354500Y188000D01*
X351000Y191500D02*
Y199500D01*
X347000Y183000D02*
X352000Y178000D01*
X347000Y183000D02*
Y196000D01*
X345000Y198000D02*
X347000Y196000D01*
X354500Y188000D02*
X359642D01*
X352000Y178000D02*
X359642D01*
X351000Y168000D02*
X359642D01*
X341039Y177961D02*
Y193000D01*
Y177961D02*
X351000Y168000D01*
X341945Y198000D02*
X345000D01*
X341039Y198906D02*
X341945Y198000D01*
X341039Y204811D02*
X345689D01*
X334500Y96149D02*
X342149Y88500D01*
X328587Y107000D02*
X334500Y101087D01*
Y96149D02*
Y101087D01*
X317000Y107000D02*
X328587D01*
X300644Y90645D02*
X317000Y107000D01*
X300644Y47855D02*
Y90645D01*
X305366Y50000D02*
Y70866D01*
X343827Y253327D02*
X358500Y268000D01*
X359642D01*
X341039Y252055D02*
X342311Y253327D01*
X343827D01*
X145980Y205134D02*
X146000Y205153D01*
X118000Y228000D02*
Y234000D01*
X112240Y226063D02*
X116063D01*
X118000Y228000D01*
X67549Y216978D02*
X87500D01*
X109000Y243000D02*
X118000Y234000D01*
X94000Y237500D02*
X99500Y243000D01*
X109000D01*
X87500Y216978D02*
X94000Y223478D01*
Y237500D01*
X111740Y212614D02*
Y213500D01*
X104760Y225866D02*
Y226063D01*
Y225866D02*
X105835Y224791D01*
X106032D01*
X111740Y219083D01*
Y213500D02*
Y219083D01*
X360650Y35500D02*
X366000D01*
X340443Y38231D02*
Y45711D01*
X342412Y47679D01*
X128000Y97890D02*
Y105390D01*
X124227Y73150D02*
X131500D01*
X124161Y73084D02*
X124227Y73150D01*
X106278Y38722D02*
X111750Y33250D01*
X106278Y38722D02*
Y46850D01*
X325492Y77992D02*
Y88333D01*
X309000Y61500D02*
X325492Y77992D01*
X126856Y296356D02*
X140077Y309577D01*
X34740Y281240D02*
X49856Y296356D01*
X126856D01*
X140077Y309577D02*
Y310484D01*
X23500Y281240D02*
X34740D01*
X23500Y258000D02*
Y273760D01*
X17500Y252000D02*
X23500Y258000D01*
X17500Y244500D02*
Y252000D01*
X58854Y225673D02*
X67549Y216978D01*
X110272Y211146D02*
X110272D01*
X108000Y205634D02*
X108135Y205768D01*
Y209009D01*
X110272Y211146D01*
X110272D02*
X111740Y212614D01*
X58854Y225673D02*
Y225772D01*
X57386Y227240D02*
X58854Y225772D01*
X56604Y227240D02*
X57386D01*
X56604D02*
Y237056D01*
X74000Y227500D02*
Y234760D01*
Y225500D02*
Y227500D01*
X65500Y242240D02*
X74000D01*
X64740Y243000D02*
X65500Y242240D01*
X61500Y243000D02*
X64740D01*
X58572Y243655D02*
X60846D01*
X61500Y243000D01*
X62000Y339350D02*
X68090D01*
X325324Y88500D02*
X325492Y88333D01*
X47500Y339350D02*
X53091D01*
X47000D02*
X47500D01*
X359500Y127858D02*
X359642Y128000D01*
X300644Y47855D02*
X302789Y45711D01*
X309000Y53000D02*
Y61500D01*
X313634Y46240D02*
X313778Y46384D01*
X323800Y36404D02*
X324686D01*
X322914Y43884D02*
X323800D01*
X324000Y54760D02*
X324886D01*
X329774Y41774D02*
X332963D01*
X329958Y49648D02*
X332963D01*
X327754Y46297D02*
Y46308D01*
X328821Y47679D02*
X332963D01*
X324886Y54760D02*
X326354Y53291D01*
X323000Y53760D02*
X324000Y54760D01*
X326354Y53251D02*
Y53291D01*
X320616Y46384D02*
X321446Y45554D01*
Y45353D02*
Y45554D01*
Y45353D02*
X322914Y43884D01*
X322444Y37760D02*
X323800Y36404D01*
X326154Y37872D02*
Y38154D01*
X324686Y36404D02*
X326154Y37872D01*
X327754Y46297D02*
X328340Y45711D01*
X332963D01*
X326154Y38154D02*
X329774Y41774D01*
X325541Y48521D02*
X327754Y46308D01*
X325500Y51000D02*
X328821Y47679D01*
X307907Y45711D02*
X310718Y48521D01*
X302789Y45711D02*
X307907D01*
X309000Y53000D02*
X311000Y51000D01*
X326354Y53251D02*
X329958Y49648D01*
X310718Y48521D02*
X325541D01*
X311000Y51000D02*
X325500D01*
X313778Y46384D02*
X320616D01*
X313634Y53760D02*
X323000D01*
X314134Y37760D02*
X322444D01*
X332000Y128000D02*
X359642D01*
X309543Y150457D02*
X332000Y128000D01*
X309543Y150457D02*
Y190047D01*
X359142Y138500D02*
X359642Y138000D01*
X335000Y138500D02*
X359142D01*
X315449Y158051D02*
X335000Y138500D01*
X315449Y158051D02*
Y190047D01*
X341000Y148000D02*
X359642D01*
X321354Y167646D02*
X341000Y148000D01*
X321354Y167646D02*
Y190047D01*
X342000Y158000D02*
X359642D01*
X327260Y172740D02*
X342000Y158000D01*
X327260Y172740D02*
Y190047D01*
X359500Y198000D02*
X359642D01*
X354000Y203500D02*
X359500Y198000D01*
X351783Y210717D02*
X354000Y208500D01*
Y203500D02*
Y208500D01*
X341039Y210717D02*
X351783D01*
X341039Y216622D02*
X351020D01*
X359642Y208000D01*
X341039Y222528D02*
X355114D01*
X359642Y218000D01*
X341039Y228433D02*
X359209D01*
X359642Y228000D01*
X341000Y234500D02*
X356142D01*
X359642Y238000D01*
X341000Y234378D02*
X341039Y234339D01*
X341000Y234378D02*
Y234500D01*
X359474Y247832D02*
X359642Y248000D01*
X355332Y247832D02*
X359474D01*
X347744Y240244D02*
X355332Y247832D01*
X341039Y240244D02*
X347744D01*
X342311Y247421D02*
X343921D01*
X354500Y258000D02*
X359642D01*
X341039Y246150D02*
X342311Y247421D01*
X343921D02*
X354500Y258000D01*
X351500Y280000D02*
X359500Y288000D01*
X343638Y265138D02*
X351500Y273000D01*
Y280000D01*
X353000Y271358D02*
X359642Y278000D01*
X353000Y269000D02*
Y271358D01*
X343492Y259492D02*
X353000Y269000D01*
X341039Y257961D02*
X342220D01*
X343492Y259232D01*
Y259492D01*
X359500Y288000D02*
X359642D01*
X341039Y263866D02*
X342311Y265138D01*
X343638D01*
X348500Y276000D02*
Y286858D01*
X343543Y271043D02*
X348500Y276000D01*
Y286858D02*
X359642Y298000D01*
X341039Y269772D02*
X342311Y271043D01*
X343543D01*
X343492Y276992D02*
X346500Y280000D01*
Y294858D02*
X359642Y308000D01*
X346500Y280000D02*
Y294858D01*
X341039Y275677D02*
X342220D01*
X343492Y276949D01*
Y276992D01*
X68090Y339350D02*
X69500Y340760D01*
X53091Y339350D02*
X54500Y340760D01*
D48*
X279650Y318000D02*
D03*
X273350D02*
D03*
X279650Y323500D02*
D03*
X273350D02*
D03*
Y329000D02*
D03*
X279650D02*
D03*
X140350Y78000D02*
D03*
X146650D02*
D03*
X16650Y199000D02*
D03*
X10350D02*
D03*
X54350Y248500D02*
D03*
X60650D02*
D03*
X22650Y335500D02*
D03*
X16350D02*
D03*
X22650Y330000D02*
D03*
X16350D02*
D03*
X22650Y324500D02*
D03*
X16350D02*
D03*
X360650Y35500D02*
D03*
X354350D02*
D03*
D49*
X161240Y219240D02*
D03*
Y211760D02*
D03*
X137740Y203740D02*
D03*
Y196260D02*
D03*
X83500Y55740D02*
D03*
Y48260D02*
D03*
X75000D02*
D03*
Y55740D02*
D03*
X269000Y347240D02*
D03*
Y339760D02*
D03*
X260500D02*
D03*
Y347240D02*
D03*
X56500Y227240D02*
D03*
Y219760D02*
D03*
X74000Y242240D02*
D03*
Y234760D02*
D03*
X65500D02*
D03*
Y242240D02*
D03*
X23500Y273760D02*
D03*
Y281240D02*
D03*
X33500Y308240D02*
D03*
Y300760D02*
D03*
X69500Y340760D02*
D03*
Y348240D02*
D03*
X54500Y340760D02*
D03*
Y348240D02*
D03*
X324000Y62240D02*
D03*
Y54760D02*
D03*
X323800Y43884D02*
D03*
Y36404D02*
D03*
X352142Y347240D02*
D03*
Y339760D02*
D03*
X343642D02*
D03*
Y347240D02*
D03*
D50*
X153480Y219000D02*
D03*
X146000D02*
D03*
Y229000D02*
D03*
X153480D02*
D03*
Y238500D02*
D03*
X146000D02*
D03*
X138980Y219000D02*
D03*
X131500D02*
D03*
Y229000D02*
D03*
X138980D02*
D03*
Y238500D02*
D03*
X131500D02*
D03*
X105097Y324500D02*
D03*
X97616D02*
D03*
X105097Y316000D02*
D03*
X97616D02*
D03*
X124448D02*
D03*
X116968D02*
D03*
X124448Y324500D02*
D03*
X116968D02*
D03*
X172760Y108500D02*
D03*
X180240D02*
D03*
X160240D02*
D03*
X152760D02*
D03*
X111740Y181000D02*
D03*
X104260D02*
D03*
Y189000D02*
D03*
X111740D02*
D03*
Y213500D02*
D03*
X104260D02*
D03*
X26240Y310000D02*
D03*
X18760D02*
D03*
X26240Y301500D02*
D03*
X18760D02*
D03*
X52760Y309000D02*
D03*
X60240D02*
D03*
Y317425D02*
D03*
X52760D02*
D03*
X60240Y325850D02*
D03*
X52760D02*
D03*
D51*
X153500Y205134D02*
D03*
X145980D02*
D03*
X149740Y196866D02*
D03*
X104240D02*
D03*
X111760D02*
D03*
X108000Y205134D02*
D03*
D52*
X148980Y184937D02*
D03*
X141500D02*
D03*
X145201Y177063D02*
D03*
X108539Y233937D02*
D03*
X112240Y226063D02*
D03*
X104760D02*
D03*
D53*
X131500Y66850D02*
D03*
Y73150D02*
D03*
X40500Y307650D02*
D03*
Y301350D02*
D03*
X32500Y343650D02*
D03*
Y337350D02*
D03*
X62000Y339350D02*
D03*
Y345650D02*
D03*
X47500Y339350D02*
D03*
Y345650D02*
D03*
X364220Y42795D02*
D03*
Y49095D02*
D03*
X358221Y42295D02*
D03*
Y48594D02*
D03*
X94500Y53150D02*
D03*
Y46850D02*
D03*
X100389Y53150D02*
D03*
Y46850D02*
D03*
X106278Y53150D02*
D03*
Y46850D02*
D03*
X112167Y53150D02*
D03*
Y46850D02*
D03*
X118055Y53150D02*
D03*
Y46850D02*
D03*
X123944Y53150D02*
D03*
Y46850D02*
D03*
X129833Y53150D02*
D03*
Y46850D02*
D03*
X135722Y53150D02*
D03*
Y46850D02*
D03*
X141611Y53150D02*
D03*
Y46850D02*
D03*
X147500Y53150D02*
D03*
Y46850D02*
D03*
X359000Y345150D02*
D03*
Y338850D02*
D03*
D54*
X145437Y70000D02*
D03*
X137563D02*
D03*
D55*
X160335Y76000D02*
D03*
X164665D02*
D03*
D56*
X156366Y84000D02*
D03*
X164634Y86559D02*
D03*
Y81441D02*
D03*
D57*
X142000Y84110D02*
D03*
Y97890D02*
D03*
X128000Y84110D02*
D03*
Y97890D02*
D03*
X114000D02*
D03*
Y84110D02*
D03*
D58*
X314142Y344587D02*
D03*
Y380413D02*
D03*
X331858Y344587D02*
D03*
Y380413D02*
D03*
X298358Y382913D02*
D03*
Y347087D02*
D03*
X280642Y382913D02*
D03*
Y347087D02*
D03*
D59*
X307811Y243984D02*
D03*
X301905D02*
D03*
X296000D02*
D03*
Y249890D02*
D03*
Y255795D02*
D03*
X301905D02*
D03*
X307811D02*
D03*
Y249890D02*
D03*
X301905D02*
D03*
D60*
X341039Y281583D02*
D03*
Y275677D02*
D03*
Y269772D02*
D03*
Y263866D02*
D03*
Y257961D02*
D03*
Y252055D02*
D03*
Y246150D02*
D03*
Y240244D02*
D03*
Y234339D02*
D03*
Y228433D02*
D03*
Y222528D02*
D03*
Y216622D02*
D03*
Y210717D02*
D03*
Y204811D02*
D03*
Y198906D02*
D03*
Y193000D02*
D03*
X272142D02*
D03*
Y198906D02*
D03*
Y204811D02*
D03*
Y210717D02*
D03*
Y216622D02*
D03*
Y222528D02*
D03*
Y228433D02*
D03*
Y234339D02*
D03*
Y240244D02*
D03*
Y246150D02*
D03*
Y252055D02*
D03*
Y257961D02*
D03*
Y263866D02*
D03*
Y269772D02*
D03*
Y275677D02*
D03*
Y281583D02*
D03*
D61*
X333165Y190047D02*
D03*
X327260D02*
D03*
X321354D02*
D03*
X315449D02*
D03*
X309543D02*
D03*
X303638D02*
D03*
X297732D02*
D03*
X291827D02*
D03*
X285921D02*
D03*
X280016D02*
D03*
D62*
X39524Y222000D02*
D03*
X17476D02*
D03*
D63*
X58572Y243655D02*
D03*
X56604D02*
D03*
X54635D02*
D03*
Y237056D02*
D03*
X56604D02*
D03*
X58572D02*
D03*
D64*
X34425Y317094D02*
D03*
X36000D02*
D03*
X37575D02*
D03*
X39150D02*
D03*
X40724D02*
D03*
Y328906D02*
D03*
X39150D02*
D03*
X37575D02*
D03*
X36000D02*
D03*
X34425D02*
D03*
D65*
X43480Y319850D02*
D03*
Y321425D02*
D03*
Y323000D02*
D03*
Y324575D02*
D03*
Y326150D02*
D03*
X31669D02*
D03*
Y324575D02*
D03*
Y323000D02*
D03*
Y321425D02*
D03*
Y319850D02*
D03*
D66*
X37575Y323000D02*
D03*
D67*
X25693Y360000D02*
D03*
X37307D02*
D03*
D68*
X144626Y21870D02*
D03*
X85374D02*
D03*
D69*
X137638Y26791D02*
D03*
X135669D02*
D03*
X133701D02*
D03*
X131732D02*
D03*
X129764D02*
D03*
X127795D02*
D03*
X125827D02*
D03*
X123858D02*
D03*
X121890D02*
D03*
X119921D02*
D03*
X117953D02*
D03*
X115984D02*
D03*
X114016D02*
D03*
X112047D02*
D03*
X110079D02*
D03*
X108110D02*
D03*
X106142D02*
D03*
X104173D02*
D03*
X102205D02*
D03*
X100236D02*
D03*
X98268D02*
D03*
X96299D02*
D03*
X94331D02*
D03*
X92362D02*
D03*
D70*
X314134Y30240D02*
D03*
Y37760D02*
D03*
X305866Y34000D02*
D03*
X313634Y46240D02*
D03*
Y53760D02*
D03*
X305366Y50000D02*
D03*
D71*
X342412Y47679D02*
D03*
D72*
X332963Y41774D02*
D03*
Y43742D02*
D03*
Y45711D02*
D03*
Y47679D02*
D03*
Y49648D02*
D03*
Y51616D02*
D03*
Y53585D02*
D03*
X351860D02*
D03*
Y51616D02*
D03*
Y49648D02*
D03*
Y47679D02*
D03*
Y45711D02*
D03*
Y43742D02*
D03*
Y41774D02*
D03*
D73*
X336506Y57128D02*
D03*
X338475D02*
D03*
X340443D02*
D03*
X342412D02*
D03*
X344380D02*
D03*
X346349D02*
D03*
X348317D02*
D03*
Y38231D02*
D03*
X346349D02*
D03*
X344380D02*
D03*
X342412D02*
D03*
X340443D02*
D03*
X338475D02*
D03*
X336506D02*
D03*
D74*
X269090Y339669D02*
X289331D01*
X298000Y286500D02*
Y331000D01*
X289331Y339669D02*
X298000Y331000D01*
X345721Y31445D02*
Y32636D01*
X344380Y33976D02*
Y38231D01*
Y33976D02*
X345721Y32636D01*
X339721Y31445D02*
X342412Y34136D01*
Y38231D01*
X178500Y179000D02*
Y194000D01*
X66500Y67000D02*
X178500Y179000D01*
X66500Y17500D02*
Y67000D01*
X63000Y17000D02*
Y73500D01*
X173000Y183500D01*
X70000Y17500D02*
Y61500D01*
X169500Y161000D02*
X169500D01*
X70000Y61500D02*
X169500Y161000D01*
X169500D02*
X184000Y175500D01*
X297500Y34000D02*
X305866D01*
X153500Y205134D02*
Y218980D01*
X153480Y219000D02*
X153500Y218980D01*
X153720Y219240D02*
X161240D01*
X153480Y219000D02*
X153720Y219240D01*
X141143Y202857D02*
X147134Y196866D01*
X149740D01*
X137740Y203740D02*
X138623Y202857D01*
X141143D01*
X142000Y190500D02*
Y198750D01*
X140250Y200500D02*
X142000Y198750D01*
X133500Y200500D02*
X140250D01*
X131500Y202500D02*
X133500Y200500D01*
X131500Y202500D02*
Y219000D01*
X149740Y185697D02*
Y196866D01*
X148980Y184937D02*
X149740Y185697D01*
X145201Y177063D02*
Y187299D01*
X142000Y190500D02*
X145201Y187299D01*
X138980Y219000D02*
Y229000D01*
Y238500D02*
X146000D01*
X131500Y229000D02*
Y238500D01*
X184000Y175500D02*
Y193500D01*
X178500Y194000D02*
X184500Y200000D01*
X184500D01*
X63000Y17000D02*
X71000Y9000D01*
X104500D01*
X112047Y16547D01*
Y26791D01*
X70000Y17500D02*
X74000Y13500D01*
X99000D01*
X108110Y22610D01*
Y26791D01*
X100500Y11500D02*
X110079Y21079D01*
Y26791D01*
X66500Y17500D02*
X72500Y11500D01*
X100500D01*
X120844Y4862D02*
Y16656D01*
X115984Y21516D02*
X120844Y16656D01*
X127000Y9500D02*
Y13000D01*
X117953Y22047D02*
X127000Y13000D01*
X117953Y22047D02*
Y26791D01*
X115984Y21516D02*
Y26791D01*
X111883Y7384D02*
X116500Y12000D01*
X111843Y7384D02*
X111883D01*
X116500Y12000D02*
Y18000D01*
X114016Y20484D02*
X116500Y18000D01*
X114016Y20484D02*
Y26791D01*
X281272Y269772D02*
X298000Y286500D01*
X347353Y35000D02*
X354350D01*
X355138Y35788D01*
X346349Y38231D02*
X346551Y38028D01*
Y35802D02*
Y38028D01*
Y35802D02*
X347353Y35000D01*
X250000Y298000D02*
X261500Y286500D01*
Y268000D02*
X265500Y264000D01*
X261500Y268000D02*
Y286500D01*
X250000Y308000D02*
X263000Y295000D01*
Y274500D02*
X267500Y270000D01*
X263000Y274500D02*
Y295000D01*
X272142Y269772D02*
X281272D01*
X250000Y288000D02*
X258500Y279500D01*
Y265000D02*
Y279500D01*
Y265000D02*
X265500Y258000D01*
X250000Y268000D02*
X255500Y262500D01*
Y259000D02*
X267640Y246860D01*
X255500Y259000D02*
Y262500D01*
X250000Y278000D02*
X257000Y271000D01*
Y263000D02*
X267945Y252055D01*
X257000Y263000D02*
Y271000D01*
X359642Y308000D02*
X367000Y315358D01*
Y322500D01*
X359000Y330500D02*
X367000Y322500D01*
X359000Y330500D02*
Y338850D01*
X164500Y76000D02*
Y81307D01*
X164634Y86559D02*
Y90650D01*
X166500Y92516D01*
Y97890D01*
X96299Y26791D02*
Y32201D01*
X157500Y39165D02*
Y62500D01*
X151796Y33461D02*
X157500Y39165D01*
X90500Y38000D02*
X96299Y32201D01*
X152000Y41500D02*
Y61500D01*
X164500Y74000D01*
X157500Y62500D02*
X170000Y75000D01*
X80862Y40071D02*
X89434Y31500D01*
X93500D02*
X94331Y30669D01*
X89434Y31500D02*
X93500D01*
X94331Y26791D02*
Y30669D01*
X170000Y75000D02*
Y85000D01*
X164634Y86559D02*
X168441D01*
X170000Y85000D01*
X164500Y81307D02*
X164634Y81441D01*
X164500Y74000D02*
Y76000D01*
X101926Y49500D02*
X103139Y48286D01*
Y37861D02*
Y48286D01*
X90000Y49500D02*
X101926D01*
X103139Y37861D02*
X106142Y34858D01*
Y26791D02*
Y34858D01*
X88760Y48260D02*
X90000Y49500D01*
X83500Y48260D02*
X88760D01*
X75000D02*
X83500D01*
X94500Y40500D02*
Y46850D01*
X98268Y26791D02*
Y36732D01*
X94500Y40500D02*
X98268Y36732D01*
X100236Y26791D02*
Y46698D01*
X100389Y46850D01*
X123858Y23401D02*
X127710Y19549D01*
X123858Y23401D02*
Y26791D01*
X228500Y158000D02*
X250000D01*
X226500Y156000D02*
X228500Y158000D01*
X212500Y156000D02*
X226500D01*
X212500Y172500D02*
X217000Y168000D01*
X250000D01*
X212500Y189000D02*
X223500Y178000D01*
X250000D01*
X212500Y203875D02*
X226625Y218000D01*
X250000D01*
X212500Y218750D02*
X221750Y228000D01*
X250000D01*
X212500Y233625D02*
X216875Y238000D01*
X250000D01*
X212500Y248500D02*
X249500D01*
X250000Y248000D01*
X212500Y262000D02*
X216500Y258000D01*
X250000D01*
X212500Y276000D02*
X220500Y268000D01*
X250000D01*
X212500Y289947D02*
X224447Y278000D01*
X250000D01*
X223559Y308000D02*
X250000D01*
X212500Y319059D02*
X223559Y308000D01*
X229925Y288000D02*
X250000D01*
X212500Y305425D02*
X229925Y288000D01*
X303638Y169638D02*
Y190047D01*
X262000Y128000D02*
X303638Y169638D01*
X250000Y128000D02*
X262000D01*
X297732Y176732D02*
Y190047D01*
X259000Y138000D02*
X297732Y176732D01*
X250000Y138000D02*
X259000D01*
X291827Y179327D02*
Y190047D01*
X260500Y148000D02*
X291827Y179327D01*
X250000Y148000D02*
X260500D01*
X285921Y184421D02*
Y190047D01*
X259500Y158000D02*
X285921Y184421D01*
X250000Y158000D02*
X259500D01*
X250000Y168000D02*
X272047Y190047D01*
X280016D01*
X250000Y178000D02*
X265000Y193000D01*
X272142D01*
X250000Y188000D02*
X260906Y198906D01*
X272142D01*
X250000Y198000D02*
X256811Y204811D01*
X272142D01*
X250000Y208000D02*
X250145D01*
X252861Y210717D01*
X272142D01*
X250000Y218000D02*
X270764D01*
X272142Y216622D01*
X250000Y228000D02*
X255472Y222528D01*
X272142D01*
X250000Y238000D02*
X259567Y228433D01*
X272142D01*
X250000Y248000D02*
X263661Y234339D01*
X272142D01*
X250000Y298000D02*
X250000D01*
X250000Y288000D02*
X250000D01*
X250000Y268000D02*
X250000D01*
X267640Y246860D02*
X271432D01*
X261000Y247000D02*
X267756Y240244D01*
X261000Y247000D02*
Y247000D01*
X267756Y240244D02*
X272142D01*
X250000Y258000D02*
X261000Y247000D01*
X250000Y258000D02*
X250000D01*
X271432Y246860D02*
X272142Y246150D01*
X267945Y252055D02*
X272142D01*
X272102Y258000D02*
X272142Y257961D01*
X265500Y258000D02*
X272102D01*
X271913Y270000D02*
X272142Y269772D01*
X267500Y270000D02*
X271913D01*
X272008Y264000D02*
X272142Y263866D01*
X265500Y264000D02*
X272008D01*
X356298Y338850D02*
X359000D01*
X352142Y339760D02*
X352298Y339604D01*
X355545D01*
X356298Y338850D01*
X343642Y339760D02*
X352142D01*
X331858Y344784D02*
Y380413D01*
X334314Y347240D02*
X343642D01*
X331858Y344784D02*
X334314Y347240D01*
X280488D02*
X280642Y347394D01*
Y382913D01*
X269000Y347240D02*
X280488D01*
X269000Y339760D02*
X269090Y339669D01*
X111500Y300844D02*
Y305000D01*
X48000Y298500D02*
X109156D01*
X111500Y300844D01*
X43500Y303000D02*
Y311690D01*
X40724Y314466D02*
Y317094D01*
Y314466D02*
X43500Y311690D01*
X45500Y304000D02*
Y312910D01*
X43480Y314930D02*
Y319850D01*
Y314930D02*
X45500Y312910D01*
X49800Y299700D02*
X102811D01*
X45500Y304000D02*
X49800Y299700D01*
X43500Y303000D02*
X48000Y298500D01*
X37575Y313720D02*
X38198Y313097D01*
X37575Y313720D02*
Y317094D01*
X38198Y309302D02*
Y313097D01*
Y309302D02*
X38950Y308551D01*
Y308413D02*
Y308551D01*
Y308413D02*
X39713Y307650D01*
X40500D01*
X102811Y299700D02*
X106000Y302889D01*
X111032Y335203D02*
X111500Y334735D01*
Y313500D02*
Y334735D01*
X106000Y308000D02*
X111500Y313500D01*
X106000Y302889D02*
Y308000D01*
D75*
X149500Y113000D02*
X184000D01*
X186000Y70500D02*
Y111000D01*
X184000Y113000D02*
X186000Y111000D01*
X188000Y69500D02*
Y112500D01*
X185500Y115000D02*
X188000Y112500D01*
X148000Y115000D02*
X185500D01*
X164000Y45500D02*
X188000Y69500D01*
X162000Y46500D02*
X186000Y70500D01*
X154803Y12500D02*
X164000Y21697D01*
X131732Y15268D02*
X134500Y12500D01*
X154803D01*
X154894Y14500D02*
X162000Y21606D01*
X138500Y14500D02*
X154894D01*
X135669Y17331D02*
X138500Y14500D01*
X56828Y321782D02*
X58647Y319964D01*
X55964Y321782D02*
X56828D01*
X54376Y323371D02*
X55964Y321782D01*
X54353Y323371D02*
X54376D01*
X52760Y324965D02*
X54353Y323371D01*
X52760Y324965D02*
Y325850D01*
X58647Y319019D02*
Y319964D01*
Y319019D02*
X60240Y317425D01*
X131500Y66850D02*
X135773D01*
X137563Y68641D02*
Y70000D01*
X135773Y66850D02*
X137563Y68641D01*
X142000Y83421D02*
X143200Y82222D01*
X146650Y71213D02*
Y78787D01*
X142000Y83421D02*
Y84110D01*
X143216Y82222D02*
X146650Y78787D01*
X143200Y82222D02*
X143216D01*
X142000Y84110D02*
X156256D01*
X156366Y84000D01*
X145437Y70000D02*
X146650Y71213D01*
X138000Y78000D02*
X140350D01*
X128000Y84110D02*
X131890D01*
X138000Y78000D01*
X114000Y84110D02*
X128000D01*
X162000Y21606D02*
Y46500D01*
X164000Y21697D02*
Y45500D01*
X135669Y17331D02*
Y26791D01*
X147000Y110500D02*
X149500Y113000D01*
X147000Y95500D02*
Y110500D01*
X144500Y93000D02*
X147000Y95500D01*
X116500Y93000D02*
X144500D01*
X114000Y97890D02*
X114560Y97330D01*
Y94940D02*
Y97330D01*
Y94940D02*
X116500Y93000D01*
X142000Y97890D02*
Y109000D01*
X148000Y115000D01*
X131732Y15268D02*
Y26791D01*
X156500Y97890D02*
Y104500D01*
X153260Y107614D02*
Y108500D01*
Y107614D02*
X154853Y106021D01*
X154979D01*
X156500Y104500D01*
X176500Y97890D02*
Y104396D01*
X178124Y106021D01*
X178147D01*
X179740Y107614D01*
Y108500D01*
X119921Y26791D02*
X121890D01*
X107753Y46162D02*
Y46162D01*
X119921Y26791D02*
Y33994D01*
X107753Y46162D02*
X119921Y33994D01*
X106278Y46698D02*
X107218D01*
X107753Y46162D01*
X133701Y40201D02*
X135722Y42222D01*
X133701Y26791D02*
Y40201D01*
X135722Y42222D02*
Y46850D01*
X131732Y26791D02*
Y39943D01*
X129833Y41842D02*
Y46850D01*
Y41842D02*
X131732Y39943D01*
X112167Y44833D02*
Y46850D01*
X125827Y26791D02*
Y31173D01*
X112167Y44833D02*
X125827Y31173D01*
X118055Y41945D02*
Y46850D01*
X127795Y26791D02*
Y32205D01*
X118055Y41945D02*
X127795Y32205D01*
X123944Y40556D02*
Y46850D01*
X129764Y26791D02*
Y34736D01*
X123944Y40556D02*
X129764Y34736D01*
X141611Y41611D02*
Y46850D01*
X135669Y35669D02*
X141611Y41611D01*
X135669Y26791D02*
Y35669D01*
X147500Y42500D02*
Y46850D01*
X137638Y32638D02*
X147500Y42500D01*
X137638Y26791D02*
Y32638D01*
X314134Y24634D02*
Y30240D01*
X324000Y62240D02*
Y67500D01*
X174000Y248500D02*
X202500D01*
X86358Y279270D02*
X143230D01*
X174000Y248500D01*
Y262000D02*
X202500D01*
X148500Y287500D02*
X174000Y262000D01*
X77500Y287500D02*
X148500D01*
X50500Y301500D02*
X82000D01*
X86500Y306000D01*
X51500Y303500D02*
X74500D01*
X77500Y306500D01*
X32500Y333360D02*
Y337350D01*
X32125Y332985D02*
X32500Y333360D01*
X34407Y328924D02*
Y330761D01*
X32183Y332985D02*
X34407Y330761D01*
X32125Y332985D02*
X32183D01*
X34407Y328924D02*
X34425Y328906D01*
X37307Y361500D02*
X39307Y363500D01*
X37575Y328906D02*
Y361232D01*
X39307Y363500D02*
X45000D01*
X37307Y361500D02*
X37575Y361232D01*
X28872Y304918D02*
X29555D01*
X32614Y308240D02*
X34000D01*
X31021Y306647D02*
X32614Y308240D01*
X31021Y306383D02*
Y306647D01*
X29555Y304918D02*
X31021Y306383D01*
X33057Y313000D02*
X34425Y314368D01*
X28500Y313000D02*
X33057D01*
X34425Y314368D02*
Y317094D01*
X43499Y321407D02*
X45837D01*
X47150Y304850D02*
Y320094D01*
X45837Y321407D02*
X47150Y320094D01*
Y304850D02*
X50500Y301500D01*
X48500Y306500D02*
X51500Y303500D01*
X48500Y306500D02*
Y321500D01*
X140077Y330484D02*
Y337923D01*
X129760Y348240D02*
X140077Y337923D01*
X69500Y348240D02*
X129760D01*
X27934Y303979D02*
X28872Y304918D01*
X26240Y301500D02*
Y302386D01*
X27834Y303979D02*
X27934D01*
X26240Y302386D02*
X27834Y303979D01*
X20353Y304113D02*
X22240Y306000D01*
X23126D02*
X26240Y309114D01*
X22240Y306000D02*
X23126D01*
X26240Y309114D02*
Y310886D01*
X18760Y301500D02*
X20353Y303094D01*
Y304113D01*
X26240Y310886D02*
X27834Y312479D01*
X27979D01*
X28500Y313000D01*
X51166Y317168D02*
X51835Y316500D01*
X52760Y309000D02*
Y317425D01*
X103503Y326979D02*
X105097Y325386D01*
X101032Y329409D02*
Y335203D01*
Y329409D02*
X103462Y326979D01*
X105097Y324500D02*
Y325386D01*
X103462Y326979D02*
X103503D01*
X101032Y305343D02*
Y311072D01*
X103481Y313521D01*
X103503D01*
X105097Y315114D01*
Y316000D01*
X116968Y309408D02*
Y316000D01*
Y309408D02*
X121032Y305343D01*
X116968Y324500D02*
Y331138D01*
X121032Y335203D01*
X37575Y323000D02*
X39150Y321425D01*
Y317094D02*
Y321425D01*
X43480Y326150D02*
X52130D01*
X52429Y325850D01*
X47470Y324575D02*
X51164Y320881D01*
X51166Y317168D02*
Y320416D01*
X51164Y320419D02*
X51166Y320416D01*
X51164Y320419D02*
Y320881D01*
X43480Y324575D02*
X47470D01*
X43480Y323000D02*
X47000D01*
X48500Y321500D01*
X43480Y321425D02*
X43499Y321407D01*
D76*
X172375Y203875D02*
X202500D01*
X158500Y181500D02*
Y190000D01*
X172375Y203875D01*
X150000Y173000D02*
X158500Y181500D01*
X119000Y173000D02*
X150000D01*
X111740Y180114D02*
X113259Y178596D01*
X111740Y180114D02*
Y181000D01*
X113259Y178596D02*
X113404D01*
X119000Y173000D01*
X199554Y230679D02*
X199554D01*
X153480Y229000D02*
X197875D01*
X199554Y230679D02*
X202500Y233625D01*
X197875Y229000D02*
X199554Y230679D01*
X161240Y211760D02*
X182260D01*
X189250Y218750D01*
X153480Y229000D02*
Y238500D01*
X69261Y285739D02*
X126000Y229000D01*
X137740Y188697D02*
X140178Y186259D01*
X140375D01*
X137740Y188697D02*
Y196260D01*
X140375Y186259D02*
X141500Y185134D01*
Y184937D02*
Y185134D01*
X126000Y200500D02*
X130240Y196260D01*
X137740D01*
X126000Y200500D02*
Y229000D01*
X104260Y181000D02*
Y189000D01*
X104240Y189020D02*
Y196866D01*
Y189020D02*
X104260Y189000D01*
X260500Y339760D02*
X269000D01*
X189250Y218750D02*
X202500D01*
X51437Y285739D02*
X69261D01*
X44091D02*
X51437D01*
X15500Y278000D02*
X36352D01*
X44091Y285739D01*
X3000Y290500D02*
Y389500D01*
Y290500D02*
X15500Y278000D01*
X56500Y213500D02*
X104260D01*
X56500D02*
Y219760D01*
X58018Y218241D02*
X58959D01*
X56500Y219760D02*
X58018Y218241D01*
X33000Y370000D02*
X36000Y373000D01*
X49500D02*
X54000Y377500D01*
X36000Y373000D02*
X49500D01*
X54000Y384500D02*
Y389000D01*
Y377500D02*
Y384500D01*
X33000Y351878D02*
Y370000D01*
X3000Y389500D02*
X4000Y390500D01*
X52500D02*
X54000Y389000D01*
X4000Y390500D02*
X52500D01*
X36000Y328906D02*
Y348878D01*
X33000Y351878D02*
X36000Y348878D01*
D77*
Y309809D02*
Y317094D01*
X34431Y308240D02*
X36000Y309809D01*
X34000Y308240D02*
X34431D01*
X61503Y338854D02*
X62000Y339350D01*
X57976Y337344D02*
X59486Y338854D01*
X49821Y337344D02*
X57976D01*
X59486Y338854D02*
X61503D01*
X49765Y337287D02*
X49821Y337344D01*
X44787Y337287D02*
X49765D01*
X40724Y333224D02*
X44787Y337287D01*
X40724Y328906D02*
Y333224D01*
X39150Y334150D02*
X44350Y339350D01*
X47000D01*
X39150Y328906D02*
Y334150D01*
D78*
X328997Y8847D02*
D03*
X356556D02*
D03*
D79*
X332934Y19477D02*
D03*
X352619D02*
D03*
D80*
X45500Y136500D02*
D03*
D81*
Y156185D02*
D03*
D82*
X359642Y318000D02*
D03*
Y308000D02*
D03*
Y298000D02*
D03*
Y288000D02*
D03*
Y278000D02*
D03*
Y268000D02*
D03*
Y258000D02*
D03*
Y248000D02*
D03*
Y238000D02*
D03*
Y228000D02*
D03*
Y218000D02*
D03*
Y208000D02*
D03*
Y198000D02*
D03*
Y188000D02*
D03*
Y178000D02*
D03*
Y168000D02*
D03*
Y158000D02*
D03*
Y148000D02*
D03*
Y138000D02*
D03*
X140077Y320484D02*
D03*
Y310484D02*
D03*
X111032Y335203D02*
D03*
X101032D02*
D03*
X111032Y305343D02*
D03*
X101032D02*
D03*
X176500Y97890D02*
D03*
X166500D02*
D03*
X342149Y88500D02*
D03*
X325324D02*
D03*
X250000Y128000D02*
D03*
Y138000D02*
D03*
Y148000D02*
D03*
Y158000D02*
D03*
Y168000D02*
D03*
Y178000D02*
D03*
Y188000D02*
D03*
Y198000D02*
D03*
Y208000D02*
D03*
Y218000D02*
D03*
Y228000D02*
D03*
Y238000D02*
D03*
Y248000D02*
D03*
Y258000D02*
D03*
Y268000D02*
D03*
Y278000D02*
D03*
Y288000D02*
D03*
Y298000D02*
D03*
Y308000D02*
D03*
X202500Y156000D02*
D03*
Y172500D02*
D03*
Y189000D02*
D03*
X212500Y203875D02*
D03*
Y218750D02*
D03*
Y233625D02*
D03*
Y248500D02*
D03*
Y262000D02*
D03*
X202500Y276000D02*
D03*
Y319059D02*
D03*
X51437Y275739D02*
D03*
X54000Y384500D02*
D03*
X21500D02*
D03*
X202500Y305425D02*
D03*
Y289947D02*
D03*
X358973Y88500D02*
D03*
D83*
X359642Y128000D02*
D03*
X140077Y330484D02*
D03*
X342149Y98500D02*
D03*
X325324D02*
D03*
X250000Y318000D02*
D03*
X51437Y285739D02*
D03*
X358973Y98500D02*
D03*
D84*
X121032Y335203D02*
D03*
Y305343D02*
D03*
X156500Y97890D02*
D03*
X212500Y156000D02*
D03*
Y172500D02*
D03*
Y189000D02*
D03*
X202500Y203875D02*
D03*
Y218750D02*
D03*
Y233625D02*
D03*
Y248500D02*
D03*
Y262000D02*
D03*
X212500Y276000D02*
D03*
Y319059D02*
D03*
X64000Y384500D02*
D03*
X11500D02*
D03*
X212500Y305425D02*
D03*
Y289947D02*
D03*
D85*
X333083Y182961D02*
D03*
X297500Y34000D02*
D03*
X305500Y71000D02*
D03*
X146000Y211500D02*
D03*
X173000Y183500D02*
D03*
X184000Y193500D02*
D03*
X184500Y200000D02*
D03*
X120844Y4862D02*
D03*
X127000Y9500D02*
D03*
X111843Y7384D02*
D03*
X288500Y330000D02*
D03*
Y324500D02*
D03*
X266500Y332000D02*
D03*
X260500Y352590D02*
D03*
X352142D02*
D03*
X151000Y314500D02*
D03*
Y326000D02*
D03*
X288500Y319000D02*
D03*
X366000Y35500D02*
D03*
X354000Y30000D02*
D03*
X345000Y45000D02*
D03*
X339500Y50500D02*
D03*
X361000Y54500D02*
D03*
X62500Y333500D02*
D03*
X128000Y105390D02*
D03*
X124161Y73084D02*
D03*
X111750Y33750D02*
D03*
X166500Y108500D02*
D03*
X155422Y75878D02*
D03*
X74878Y60653D02*
D03*
X151796Y33461D02*
D03*
X90500Y38000D02*
D03*
X152000Y41500D02*
D03*
X80862Y40071D02*
D03*
X154000Y22000D02*
D03*
X76000D02*
D03*
X134250Y57500D02*
D03*
X121000D02*
D03*
X107750D02*
D03*
X94500D02*
D03*
X147500D02*
D03*
X127710Y19549D02*
D03*
X324000Y67500D02*
D03*
X314134Y24634D02*
D03*
X334000Y282000D02*
D03*
X307898Y238726D02*
D03*
X295507Y238705D02*
D03*
X296283Y261035D02*
D03*
X308045Y261119D02*
D03*
X279000Y275500D02*
D03*
X86358Y279270D02*
D03*
X77500Y287500D02*
D03*
X86500Y306000D02*
D03*
X77500Y306500D02*
D03*
X359000Y349500D02*
D03*
X306000Y368000D02*
D03*
X118000Y193000D02*
D03*
X103000Y232000D02*
D03*
X56500Y213500D02*
D03*
X48500Y250000D02*
D03*
X10500Y193500D02*
D03*
X78000Y251000D02*
D03*
X64500Y228500D02*
D03*
X62000Y251000D02*
D03*
X17500Y244500D02*
D03*
X74000Y227500D02*
D03*
X131000Y320000D02*
D03*
X31326Y347986D02*
D03*
X32125Y332985D02*
D03*
X45000Y363500D02*
D03*
X36500Y293000D02*
D03*
X12892Y310500D02*
D03*
X67500Y309000D02*
D03*
X62000Y353000D02*
D03*
X10000D02*
D03*
X9000Y318500D02*
D03*
X25500Y317500D02*
D03*
X46500Y330500D02*
D03*
X47500Y355500D02*
D03*
X339721Y31445D02*
D03*
X345721D02*
D03*
M02*
